M48
;GenerationSoftware,Autodesk,EAGLE,9.6.2*%
;CreationDate,2022-01-08T17:03:09Z*%
FMAT,2
ICI,OFF
METRIC,TZ,000.000
T5C0.600
T4C0.640
T3C0.813
T2C0.914
T1C1.000
%
G90
M71
T1
X39280Y31800
X36740Y31800
X34200Y31800
X31660Y31800
X29120Y31800
T2
X23400Y43270
X23400Y40730
X31800Y40730
X31800Y43270
T3
X5290Y12590
X5290Y10050
X48600Y3390
X48600Y11010
X46200Y11010
X46200Y3390
T4
X5550Y32360
X5550Y29860
T5
X41710Y38530
X41700Y33900
X23100Y23700
X19800Y27000
X17350Y36330
X17400Y33600
X17400Y13200
X25200Y5400
X25200Y1800
X21000Y46800
X17700Y43640
X54000Y13200
X50400Y16800
X27570Y44060
X27550Y48300
M30