G04 EAGLE Gerber RS-274X export*
G75*
%MOMM*%
%FSLAX34Y34*%
%LPD*%
%INBottom Copper*%
%IPPOS*%
%AMOC8*
5,1,8,0,0,1.08239X$1,22.5*%
G01*
%ADD10R,1.600000X1.300000*%
%ADD11R,3.500000X1.600000*%
%ADD12R,2.400000X2.400000*%
%ADD13R,6.200000X5.400000*%
%ADD14R,1.600000X1.000000*%
%ADD15C,1.452800*%
%ADD16P,1.759533X8X292.500000*%
%ADD17R,1.803000X1.600000*%
%ADD18R,3.000000X1.200000*%
%ADD19C,0.322400*%
%ADD20P,1.759533X8X112.500000*%
%ADD21C,0.343200*%
%ADD22R,1.600000X1.803000*%
%ADD23C,0.139500*%
%ADD24C,0.196500*%
%ADD25C,1.727200*%
%ADD26C,1.812800*%
%ADD27C,0.600000*%
%ADD28C,1.006400*%
%ADD29C,0.500000*%

G36*
X241304Y20998D02*
X241304Y20998D01*
X241306Y20998D01*
X242652Y24246D01*
X245754Y27348D01*
X246002Y27451D01*
X246003Y27455D01*
X246005Y27456D01*
X246005Y44544D01*
X246002Y44547D01*
X246002Y44549D01*
X245754Y44652D01*
X242652Y47754D01*
X242105Y49074D01*
X242102Y49075D01*
X242101Y49077D01*
X242100Y49076D01*
X242099Y49077D01*
X242098Y49074D01*
X242095Y49072D01*
X242095Y46717D01*
X238583Y43205D01*
X238435Y43205D01*
X238435Y43204D01*
X238434Y43205D01*
X238433Y43203D01*
X238430Y43200D01*
X238431Y43199D01*
X238431Y43198D01*
X238635Y42704D01*
X238635Y35705D01*
X228100Y35705D01*
X217565Y35705D01*
X217565Y38974D01*
X217564Y38976D01*
X217564Y38977D01*
X217562Y38978D01*
X217560Y38979D01*
X217559Y38978D01*
X217556Y38978D01*
X214783Y36205D01*
X174817Y36205D01*
X171305Y39717D01*
X171305Y60683D01*
X174817Y64195D01*
X185800Y64195D01*
X185805Y64200D01*
X185804Y64200D01*
X185805Y64200D01*
X185805Y70172D01*
X185803Y70174D01*
X185803Y70176D01*
X166574Y89405D01*
X165205Y92711D01*
X165205Y101500D01*
X165200Y101505D01*
X165200Y101504D01*
X165200Y101505D01*
X163717Y101505D01*
X163218Y102003D01*
X163216Y102003D01*
X163216Y102004D01*
X163215Y102005D01*
X159000Y102005D01*
X158995Y102000D01*
X158996Y102000D01*
X158995Y102000D01*
X158995Y94211D01*
X157626Y90905D01*
X143095Y76374D01*
X139789Y75005D01*
X111728Y75005D01*
X111726Y75003D01*
X111724Y75003D01*
X110997Y74276D01*
X110997Y74274D01*
X110996Y74274D01*
X110996Y74273D01*
X110995Y74272D01*
X110995Y64200D01*
X111000Y64195D01*
X111000Y64196D01*
X111000Y64195D01*
X118783Y64195D01*
X122295Y60683D01*
X122295Y60535D01*
X122296Y60535D01*
X122295Y60534D01*
X122297Y60533D01*
X122300Y60530D01*
X122301Y60531D01*
X122302Y60531D01*
X122796Y60735D01*
X140795Y60735D01*
X140795Y50200D01*
X140795Y39665D01*
X122796Y39665D01*
X122302Y39869D01*
X122301Y39869D01*
X122301Y39870D01*
X122300Y39869D01*
X122299Y39868D01*
X122296Y39867D01*
X122296Y39866D01*
X122295Y39865D01*
X122295Y39717D01*
X118783Y36205D01*
X78817Y36205D01*
X75305Y39717D01*
X75305Y60683D01*
X78817Y64195D01*
X93000Y64195D01*
X93005Y64200D01*
X93004Y64200D01*
X93005Y64200D01*
X93005Y79789D01*
X94374Y83095D01*
X102905Y91626D01*
X106211Y92995D01*
X134272Y92995D01*
X134274Y92997D01*
X134276Y92997D01*
X141003Y99724D01*
X141003Y99726D01*
X141005Y99727D01*
X141004Y99728D01*
X141005Y99728D01*
X141005Y102000D01*
X141000Y102005D01*
X141000Y102004D01*
X141000Y102005D01*
X63568Y102005D01*
X63563Y102000D01*
X63564Y102000D01*
X63563Y102000D01*
X63563Y100505D01*
X52905Y100505D01*
X52905Y111163D01*
X57317Y111163D01*
X59996Y108484D01*
X59998Y108484D01*
X59999Y108482D01*
X60000Y108483D01*
X60001Y108483D01*
X60003Y108483D01*
X60003Y108486D01*
X60005Y108487D01*
X60005Y113020D01*
X60004Y113021D01*
X60004Y113023D01*
X60002Y113023D01*
X60000Y113025D01*
X60000Y113024D01*
X59999Y113024D01*
X59998Y113023D01*
X59996Y113023D01*
X58750Y111777D01*
X47050Y111777D01*
X38777Y120050D01*
X38777Y131750D01*
X44303Y137277D01*
X44304Y137279D01*
X44305Y137280D01*
X44305Y137780D01*
X44300Y137785D01*
X44300Y137784D01*
X44300Y137785D01*
X41802Y137785D01*
X38290Y141297D01*
X38290Y162263D01*
X41802Y165775D01*
X60000Y165775D01*
X60005Y165780D01*
X60004Y165780D01*
X60005Y165780D01*
X60005Y166220D01*
X60000Y166225D01*
X60000Y166224D01*
X60000Y166225D01*
X41802Y166225D01*
X38290Y169737D01*
X38290Y190703D01*
X39283Y191696D01*
X39283Y191698D01*
X39284Y191699D01*
X39283Y191701D01*
X39283Y191703D01*
X39281Y191703D01*
X39279Y191705D01*
X38917Y191705D01*
X35405Y195217D01*
X35405Y224183D01*
X38917Y227695D01*
X67883Y227695D01*
X71395Y224183D01*
X71395Y195217D01*
X67883Y191705D01*
X67321Y191705D01*
X67319Y191704D01*
X67318Y191704D01*
X67317Y191702D01*
X67316Y191700D01*
X67317Y191699D01*
X67317Y191696D01*
X68310Y190703D01*
X68310Y189320D01*
X68315Y189315D01*
X68315Y189316D01*
X68315Y189315D01*
X78000Y189315D01*
X78005Y189320D01*
X78004Y189320D01*
X78005Y189320D01*
X78005Y272483D01*
X81517Y275995D01*
X176483Y275995D01*
X176996Y275482D01*
X176998Y275482D01*
X176999Y275481D01*
X177001Y275482D01*
X177003Y275482D01*
X177003Y275484D01*
X177005Y275486D01*
X177005Y296272D01*
X177003Y296274D01*
X177003Y296276D01*
X169276Y304003D01*
X169273Y304004D01*
X169272Y304005D01*
X139017Y304005D01*
X135505Y307517D01*
X135505Y328483D01*
X139017Y331995D01*
X163716Y331995D01*
X163716Y331996D01*
X163717Y331995D01*
X163718Y331997D01*
X163721Y332000D01*
X163720Y332001D01*
X163720Y332002D01*
X162973Y333806D01*
X162973Y338194D01*
X164652Y342246D01*
X167754Y345348D01*
X171807Y347027D01*
X176193Y347027D01*
X180246Y345348D01*
X183348Y342246D01*
X185027Y338193D01*
X185027Y333807D01*
X184197Y331802D01*
X184197Y331801D01*
X184198Y331799D01*
X184199Y331796D01*
X184200Y331796D01*
X184201Y331795D01*
X211283Y331795D01*
X214795Y328283D01*
X214795Y307317D01*
X211283Y303805D01*
X194168Y303805D01*
X194167Y303804D01*
X194166Y303805D01*
X194166Y303803D01*
X194163Y303800D01*
X194164Y303799D01*
X194163Y303798D01*
X194995Y301789D01*
X194995Y280699D01*
X194996Y280698D01*
X194995Y280697D01*
X194997Y280696D01*
X195000Y280694D01*
X195001Y280695D01*
X195002Y280694D01*
X195807Y281027D01*
X200193Y281027D01*
X204246Y279348D01*
X207348Y276246D01*
X209027Y272193D01*
X209027Y267807D01*
X207348Y263754D01*
X204246Y260652D01*
X200194Y258973D01*
X195806Y258973D01*
X195002Y259306D01*
X195001Y259306D01*
X194999Y259305D01*
X194996Y259304D01*
X194996Y259302D01*
X194995Y259301D01*
X194995Y232211D01*
X193626Y228905D01*
X192725Y228004D01*
X192725Y228002D01*
X192724Y228002D01*
X192725Y228001D01*
X192724Y227997D01*
X192725Y227997D01*
X192725Y227996D01*
X198196Y222525D01*
X198198Y222525D01*
X198199Y222523D01*
X198201Y222525D01*
X198203Y222524D01*
X198203Y222527D01*
X198205Y222528D01*
X198205Y250989D01*
X199574Y254295D01*
X228905Y283626D01*
X232211Y284995D01*
X308272Y284995D01*
X308274Y284997D01*
X308276Y284997D01*
X308703Y285424D01*
X308704Y285427D01*
X308705Y285428D01*
X308705Y295903D01*
X308702Y295906D01*
X308702Y295908D01*
X308070Y296169D01*
X303833Y300406D01*
X302040Y304735D01*
X302039Y304736D01*
X302038Y304737D01*
X302036Y304737D01*
X302034Y304738D01*
X302033Y304735D01*
X302031Y304734D01*
X301949Y304483D01*
X301121Y302857D01*
X300047Y301380D01*
X298756Y300089D01*
X297279Y299015D01*
X295653Y298187D01*
X293916Y297622D01*
X292113Y297337D01*
X291205Y297337D01*
X291205Y318000D01*
X291205Y338663D01*
X292113Y338663D01*
X293916Y338378D01*
X295653Y337813D01*
X297279Y336985D01*
X298756Y335911D01*
X300047Y334620D01*
X301121Y333143D01*
X301949Y331517D01*
X302031Y331266D01*
X302033Y331265D01*
X302033Y331263D01*
X302035Y331263D01*
X302037Y331262D01*
X302038Y331264D01*
X302040Y331265D01*
X303833Y335594D01*
X308070Y339831D01*
X313605Y342123D01*
X319595Y342123D01*
X325130Y339831D01*
X329296Y335664D01*
X329299Y335664D01*
X329301Y335664D01*
X329303Y335664D01*
X329304Y335664D01*
X333470Y339831D01*
X339005Y342123D01*
X344995Y342123D01*
X350530Y339831D01*
X354696Y335664D01*
X354699Y335664D01*
X354701Y335664D01*
X354703Y335664D01*
X354704Y335664D01*
X358870Y339831D01*
X364405Y342123D01*
X370395Y342123D01*
X375930Y339831D01*
X380096Y335664D01*
X380099Y335664D01*
X380101Y335664D01*
X380103Y335664D01*
X380104Y335664D01*
X384270Y339831D01*
X389805Y342123D01*
X395795Y342123D01*
X401330Y339831D01*
X405567Y335594D01*
X407859Y330059D01*
X407859Y305941D01*
X405567Y300406D01*
X401797Y296636D01*
X401796Y296633D01*
X401795Y296632D01*
X401795Y210928D01*
X401797Y210926D01*
X401797Y210924D01*
X404896Y207825D01*
X404898Y207825D01*
X404899Y207823D01*
X404901Y207825D01*
X404903Y207824D01*
X404903Y207827D01*
X404905Y207828D01*
X404905Y219283D01*
X406418Y220796D01*
X406418Y220803D01*
X406418Y220804D01*
X404905Y222317D01*
X404905Y239283D01*
X408417Y242795D01*
X409308Y242795D01*
X409309Y242796D01*
X409311Y242796D01*
X409311Y242798D01*
X409312Y242800D01*
X409311Y242801D01*
X409311Y242804D01*
X408751Y243364D01*
X408365Y244296D01*
X408365Y250795D01*
X425900Y250795D01*
X443435Y250795D01*
X443435Y245771D01*
X443436Y245769D01*
X443436Y245768D01*
X443438Y245767D01*
X443440Y245766D01*
X443441Y245767D01*
X443444Y245767D01*
X445002Y247325D01*
X486700Y247325D01*
X486705Y247330D01*
X486704Y247330D01*
X486705Y247330D01*
X486705Y247770D01*
X486700Y247775D01*
X486700Y247774D01*
X486700Y247775D01*
X465902Y247775D01*
X462443Y251233D01*
X462441Y251234D01*
X462440Y251235D01*
X456505Y251235D01*
X456505Y261770D01*
X456505Y272305D01*
X462440Y272305D01*
X462441Y272307D01*
X462443Y272307D01*
X465902Y275765D01*
X468400Y275765D01*
X468405Y275770D01*
X468405Y346872D01*
X468403Y346874D01*
X468403Y346876D01*
X460676Y354603D01*
X460673Y354604D01*
X460672Y354605D01*
X180402Y354605D01*
X180400Y354603D01*
X180398Y354603D01*
X179746Y353952D01*
X175694Y352273D01*
X171306Y352273D01*
X167254Y353952D01*
X164152Y357054D01*
X162473Y361106D01*
X162473Y365494D01*
X164152Y369546D01*
X167254Y372648D01*
X171307Y374327D01*
X175693Y374327D01*
X179746Y372648D01*
X179798Y372597D01*
X179801Y372596D01*
X179802Y372595D01*
X466189Y372595D01*
X469495Y371226D01*
X485026Y355695D01*
X486395Y352389D01*
X486395Y275770D01*
X486400Y275765D01*
X486400Y275766D01*
X486400Y275765D01*
X488898Y275765D01*
X491667Y272997D01*
X491669Y272996D01*
X491670Y272995D01*
X497330Y272995D01*
X497331Y272997D01*
X497333Y272997D01*
X500102Y275765D01*
X523098Y275765D01*
X524996Y273867D01*
X524998Y273867D01*
X524999Y273866D01*
X525001Y273867D01*
X525003Y273867D01*
X525003Y273869D01*
X525005Y273871D01*
X525005Y452272D01*
X525003Y452274D01*
X525003Y452276D01*
X524276Y453003D01*
X524273Y453004D01*
X524272Y453005D01*
X418211Y453005D01*
X414905Y454374D01*
X410276Y459003D01*
X410273Y459004D01*
X410272Y459005D01*
X405728Y459005D01*
X405727Y459004D01*
X405725Y459004D01*
X405725Y459002D01*
X405723Y459000D01*
X405725Y458999D01*
X405725Y458996D01*
X405726Y458995D01*
X426224Y438497D01*
X426227Y438496D01*
X426228Y438495D01*
X454015Y438495D01*
X454016Y438497D01*
X454018Y438497D01*
X457517Y441995D01*
X478483Y441995D01*
X481995Y438483D01*
X481995Y420517D01*
X481482Y420004D01*
X481482Y419997D01*
X481482Y419996D01*
X481995Y419483D01*
X481995Y401517D01*
X478483Y398005D01*
X457517Y398005D01*
X454018Y401503D01*
X454016Y401504D01*
X454015Y401505D01*
X391711Y401505D01*
X388405Y402874D01*
X367576Y423703D01*
X367573Y423704D01*
X367572Y423705D01*
X338335Y423705D01*
X338333Y423703D01*
X338331Y423703D01*
X334924Y420296D01*
X329602Y418092D01*
X329601Y418090D01*
X329599Y418089D01*
X329600Y418088D01*
X329599Y418086D01*
X329601Y418085D01*
X329602Y418082D01*
X330924Y417653D01*
X332491Y416855D01*
X333914Y415821D01*
X335157Y414578D01*
X336191Y413155D01*
X336989Y411588D01*
X337532Y409916D01*
X337807Y408179D01*
X337807Y407305D01*
X318000Y407305D01*
X298193Y407305D01*
X298193Y408179D01*
X298468Y409916D01*
X299011Y411588D01*
X299809Y413155D01*
X300843Y414578D01*
X302086Y415821D01*
X303509Y416855D01*
X305076Y417653D01*
X306398Y418082D01*
X306399Y418084D01*
X306401Y418085D01*
X306400Y418086D01*
X306401Y418088D01*
X306399Y418089D01*
X306398Y418092D01*
X301076Y420296D01*
X296960Y424412D01*
X294733Y429790D01*
X294733Y435610D01*
X296960Y440988D01*
X300869Y444896D01*
X300869Y444898D01*
X300870Y444899D01*
X300869Y444901D01*
X300869Y444903D01*
X300867Y444903D01*
X300865Y444905D01*
X285860Y444905D01*
X285859Y444904D01*
X285859Y444905D01*
X285858Y444903D01*
X285855Y444900D01*
X285856Y444899D01*
X285855Y444898D01*
X286727Y442793D01*
X286727Y438407D01*
X285408Y435222D01*
X285408Y435221D01*
X285409Y435219D01*
X285410Y435216D01*
X285412Y435216D01*
X285413Y435215D01*
X287498Y435215D01*
X291010Y431703D01*
X291010Y410737D01*
X287498Y407225D01*
X264502Y407225D01*
X260990Y410737D01*
X260990Y431703D01*
X264502Y435215D01*
X265987Y435215D01*
X265988Y435216D01*
X265989Y435215D01*
X265989Y435217D01*
X265992Y435220D01*
X265991Y435221D01*
X265992Y435222D01*
X264673Y438406D01*
X264673Y442794D01*
X265545Y444898D01*
X265544Y444899D01*
X265545Y444899D01*
X265544Y444901D01*
X265542Y444904D01*
X265541Y444904D01*
X265540Y444905D01*
X251135Y444905D01*
X251134Y444904D01*
X251132Y444904D01*
X251132Y444902D01*
X251130Y444900D01*
X251131Y444899D01*
X251131Y444896D01*
X255040Y440988D01*
X257267Y435610D01*
X257267Y429790D01*
X255040Y424412D01*
X250924Y420296D01*
X250220Y420005D01*
X250219Y420003D01*
X250217Y420002D01*
X250218Y420001D01*
X250217Y419999D01*
X250219Y419998D01*
X250220Y419995D01*
X250924Y419704D01*
X255040Y415588D01*
X257267Y410210D01*
X257267Y404390D01*
X255040Y399012D01*
X250924Y394896D01*
X245546Y392669D01*
X231392Y392669D01*
X231390Y392667D01*
X231388Y392667D01*
X226745Y388024D01*
X223439Y386655D01*
X174527Y386655D01*
X174526Y386654D01*
X174525Y386654D01*
X174524Y386653D01*
X174522Y386650D01*
X174523Y386649D01*
X174523Y386647D01*
X174795Y386175D01*
X175085Y385094D01*
X175085Y382955D01*
X162200Y382955D01*
X149315Y382955D01*
X149315Y385094D01*
X149605Y386175D01*
X150154Y387127D01*
X150153Y387133D01*
X150152Y387133D01*
X150152Y387134D01*
X150102Y387154D01*
X150101Y387154D01*
X150100Y387155D01*
X147171Y387155D01*
X147169Y387153D01*
X147167Y387153D01*
X146497Y386483D01*
X146497Y386481D01*
X146495Y386480D01*
X146496Y386480D01*
X146495Y386479D01*
X146495Y370310D01*
X145202Y367188D01*
X138912Y360898D01*
X135790Y359605D01*
X92210Y359605D01*
X89088Y360898D01*
X77203Y372783D01*
X77200Y372784D01*
X77199Y372785D01*
X70802Y372785D01*
X67290Y376297D01*
X67290Y397263D01*
X70802Y400775D01*
X93798Y400775D01*
X97310Y397263D01*
X97310Y376706D01*
X97312Y376704D01*
X97312Y376702D01*
X97417Y376597D01*
X97420Y376597D01*
X97420Y376596D01*
X97421Y376595D01*
X99020Y376595D01*
X99021Y376596D01*
X99023Y376596D01*
X99023Y376598D01*
X99024Y376600D01*
X99023Y376601D01*
X99023Y376604D01*
X98629Y376998D01*
X97455Y379832D01*
X97455Y386068D01*
X98629Y388902D01*
X99023Y389296D01*
X99024Y389303D01*
X99023Y389303D01*
X99023Y389304D01*
X98629Y389698D01*
X97455Y392532D01*
X97455Y398768D01*
X98629Y401602D01*
X99023Y401996D01*
X99024Y402003D01*
X99023Y402003D01*
X99023Y402004D01*
X98629Y402398D01*
X97455Y405232D01*
X97455Y411468D01*
X97766Y412218D01*
X97765Y412219D01*
X97766Y412219D01*
X97765Y412221D01*
X97763Y412224D01*
X97762Y412224D01*
X97761Y412225D01*
X97315Y412225D01*
X97310Y412220D01*
X97311Y412220D01*
X97310Y412220D01*
X97310Y404737D01*
X93798Y401225D01*
X70802Y401225D01*
X67290Y404737D01*
X67290Y412220D01*
X67285Y412225D01*
X67285Y412224D01*
X67285Y412225D01*
X34948Y412225D01*
X34946Y412223D01*
X34944Y412223D01*
X20997Y398276D01*
X20996Y398273D01*
X20995Y398272D01*
X20995Y45728D01*
X20997Y45726D01*
X20997Y45724D01*
X24756Y41965D01*
X24758Y41965D01*
X24759Y41963D01*
X24761Y41965D01*
X24763Y41964D01*
X24763Y41967D01*
X24765Y41968D01*
X24765Y50195D01*
X44795Y50195D01*
X44795Y39665D01*
X27068Y39665D01*
X27067Y39664D01*
X27065Y39664D01*
X27065Y39662D01*
X27063Y39660D01*
X27065Y39659D01*
X27065Y39656D01*
X45724Y20997D01*
X45727Y20996D01*
X45728Y20995D01*
X241302Y20995D01*
X241304Y20998D01*
G37*
G36*
X246005Y-1D02*
X246005Y-1D01*
X246004Y0D01*
X246005Y0D01*
X246005Y3000D01*
X246000Y3005D01*
X246000Y3004D01*
X246000Y3005D01*
X40211Y3005D01*
X36905Y4374D01*
X4374Y36905D01*
X3005Y40211D01*
X3005Y403789D01*
X4374Y407095D01*
X23594Y426315D01*
X26125Y428846D01*
X29431Y430215D01*
X58059Y430215D01*
X58061Y430216D01*
X58062Y430216D01*
X58063Y430218D01*
X58064Y430220D01*
X58063Y430221D01*
X58063Y430224D01*
X55785Y432502D01*
X55785Y455498D01*
X59297Y459010D01*
X80263Y459010D01*
X83775Y455498D01*
X83775Y432502D01*
X81497Y430224D01*
X81497Y430222D01*
X81496Y430221D01*
X81497Y430219D01*
X81497Y430217D01*
X81499Y430217D01*
X81501Y430215D01*
X86499Y430215D01*
X86501Y430216D01*
X86502Y430216D01*
X86503Y430218D01*
X86504Y430220D01*
X86503Y430221D01*
X86503Y430224D01*
X84225Y432502D01*
X84225Y455498D01*
X87737Y459010D01*
X108703Y459010D01*
X110646Y457067D01*
X110653Y457067D01*
X110654Y457067D01*
X112797Y459210D01*
X116487Y459210D01*
X116489Y459212D01*
X116491Y459212D01*
X132905Y475626D01*
X136211Y476995D01*
X176272Y476995D01*
X176274Y476997D01*
X176276Y476997D01*
X189905Y490626D01*
X193211Y491995D01*
X268898Y491995D01*
X268900Y491997D01*
X268902Y491997D01*
X269254Y492348D01*
X273307Y494027D01*
X277693Y494027D01*
X281746Y492348D01*
X284848Y489246D01*
X286527Y485193D01*
X286527Y480807D01*
X284951Y477002D01*
X284952Y477001D01*
X284951Y477001D01*
X284952Y476999D01*
X284953Y476996D01*
X284955Y476996D01*
X284956Y476995D01*
X415789Y476995D01*
X419095Y475626D01*
X423724Y470997D01*
X423727Y470996D01*
X423728Y470995D01*
X529789Y470995D01*
X533095Y469626D01*
X535626Y467095D01*
X539095Y463626D01*
X541626Y461095D01*
X542995Y457789D01*
X542995Y162031D01*
X541626Y158725D01*
X527112Y144211D01*
X527112Y144209D01*
X527111Y144209D01*
X527112Y144208D01*
X527111Y144208D01*
X527110Y144207D01*
X527110Y131437D01*
X523598Y127925D01*
X500602Y127925D01*
X497090Y131437D01*
X497090Y137250D01*
X497085Y137255D01*
X497085Y137254D01*
X497085Y137255D01*
X475141Y137255D01*
X475139Y137253D01*
X475138Y137253D01*
X473797Y135913D01*
X471001Y134755D01*
X464999Y134755D01*
X462203Y135913D01*
X460063Y138053D01*
X458905Y140849D01*
X458905Y151651D01*
X459980Y154248D01*
X459980Y154249D01*
X459981Y154249D01*
X459979Y154251D01*
X459978Y154254D01*
X459977Y154254D01*
X459976Y154255D01*
X455499Y154255D01*
X452703Y155413D01*
X450563Y157553D01*
X449405Y160349D01*
X449405Y171151D01*
X450563Y173947D01*
X450852Y174236D01*
X450852Y174238D01*
X450853Y174238D01*
X451298Y175312D01*
X458623Y182637D01*
X458623Y182639D01*
X458624Y182642D01*
X458623Y182642D01*
X458623Y182643D01*
X458620Y182644D01*
X458617Y182645D01*
X456589Y181805D01*
X446385Y181805D01*
X446384Y181803D01*
X446382Y181803D01*
X445382Y180804D01*
X445382Y180797D01*
X445382Y180796D01*
X446895Y179283D01*
X446895Y162317D01*
X445382Y160804D01*
X445382Y160797D01*
X445382Y160796D01*
X446895Y159283D01*
X446895Y142317D01*
X445382Y140804D01*
X445382Y140801D01*
X445381Y140800D01*
X445382Y140799D01*
X445382Y140797D01*
X445382Y140796D01*
X446895Y139283D01*
X446895Y122317D01*
X445382Y120804D01*
X445382Y120802D01*
X445381Y120801D01*
X445382Y120800D01*
X445382Y120797D01*
X445382Y120796D01*
X446895Y119283D01*
X446895Y107728D01*
X446896Y107727D01*
X446896Y107725D01*
X446898Y107725D01*
X446900Y107723D01*
X446901Y107725D01*
X446904Y107725D01*
X447875Y108696D01*
X447876Y108699D01*
X447877Y108700D01*
X447877Y115950D01*
X456150Y124223D01*
X467850Y124223D01*
X472977Y119097D01*
X472979Y119096D01*
X472980Y119095D01*
X475020Y119095D01*
X475022Y119097D01*
X475023Y119097D01*
X480150Y124223D01*
X491850Y124223D01*
X497081Y118992D01*
X497083Y118992D01*
X497084Y118990D01*
X497086Y118992D01*
X497088Y118991D01*
X497088Y118994D01*
X497090Y118995D01*
X497090Y123963D01*
X500602Y127475D01*
X523598Y127475D01*
X527110Y123963D01*
X527110Y102997D01*
X523598Y99485D01*
X521100Y99485D01*
X521095Y99480D01*
X521095Y90311D01*
X519726Y87005D01*
X508795Y76074D01*
X505489Y74705D01*
X438000Y74705D01*
X437995Y74700D01*
X437996Y74700D01*
X437995Y74700D01*
X437995Y0D01*
X438000Y-5D01*
X552000Y-5D01*
X552005Y-1D01*
X552005Y0D01*
X552005Y498000D01*
X552001Y498005D01*
X552000Y498005D01*
X0Y498005D01*
X-5Y498001D01*
X-5Y498000D01*
X-5Y0D01*
X-1Y-5D01*
X0Y-5D01*
X246000Y-5D01*
X246005Y-1D01*
G37*
%LPC*%
G36*
X480150Y19777D02*
X480150Y19777D01*
X471877Y28050D01*
X471877Y28685D01*
X471876Y28686D01*
X471876Y28688D01*
X471874Y28688D01*
X471872Y28690D01*
X471872Y28689D01*
X471872Y28690D01*
X471870Y28688D01*
X471868Y28688D01*
X466417Y23237D01*
X462005Y23237D01*
X462005Y33900D01*
X462005Y44563D01*
X466417Y44563D01*
X471868Y39112D01*
X471870Y39112D01*
X471871Y39110D01*
X471873Y39111D01*
X471875Y39111D01*
X471875Y39114D01*
X471877Y39115D01*
X471877Y39750D01*
X480150Y48023D01*
X491850Y48023D01*
X496977Y42897D01*
X496979Y42896D01*
X496980Y42895D01*
X504172Y42895D01*
X504174Y42897D01*
X504176Y42897D01*
X531003Y69724D01*
X531004Y69727D01*
X531005Y69728D01*
X531005Y125398D01*
X531003Y125400D01*
X531003Y125402D01*
X530652Y125754D01*
X528973Y129806D01*
X528973Y134194D01*
X530652Y138246D01*
X533754Y141348D01*
X537807Y143027D01*
X542193Y143027D01*
X546246Y141348D01*
X549348Y138246D01*
X551027Y134193D01*
X551027Y129807D01*
X549348Y125754D01*
X548997Y125402D01*
X548996Y125399D01*
X548995Y125398D01*
X548995Y64211D01*
X547626Y60905D01*
X545095Y58374D01*
X515526Y28805D01*
X512995Y26274D01*
X509689Y24905D01*
X496980Y24905D01*
X496978Y24903D01*
X496977Y24903D01*
X491850Y19777D01*
X480150Y19777D01*
G37*
%LPD*%
%LPC*%
G36*
X38917Y235705D02*
X38917Y235705D01*
X35405Y239217D01*
X35405Y268183D01*
X38917Y271695D01*
X46500Y271695D01*
X46505Y271700D01*
X46504Y271700D01*
X46505Y271700D01*
X46505Y288842D01*
X46503Y288844D01*
X46503Y288845D01*
X44259Y291089D01*
X42241Y295963D01*
X42241Y301237D01*
X44259Y306111D01*
X47989Y309841D01*
X52863Y311859D01*
X58137Y311859D01*
X63011Y309841D01*
X66741Y306111D01*
X68759Y301237D01*
X68759Y295963D01*
X66741Y291089D01*
X64497Y288845D01*
X64496Y288843D01*
X64495Y288842D01*
X64495Y271700D01*
X64500Y271695D01*
X64500Y271696D01*
X64500Y271695D01*
X67883Y271695D01*
X71395Y268183D01*
X71395Y239217D01*
X67883Y235705D01*
X38917Y235705D01*
G37*
%LPD*%
%LPC*%
G36*
X279601Y318005D02*
X279601Y318005D01*
X279601Y327977D01*
X279886Y329780D01*
X280451Y331517D01*
X281279Y333143D01*
X282353Y334620D01*
X283644Y335911D01*
X285121Y336985D01*
X286747Y337813D01*
X288484Y338378D01*
X290287Y338663D01*
X291195Y338663D01*
X291195Y318005D01*
X279601Y318005D01*
G37*
%LPD*%
%LPC*%
G36*
X290287Y297337D02*
X290287Y297337D01*
X288484Y297622D01*
X286747Y298187D01*
X285121Y299015D01*
X283644Y300089D01*
X282353Y301380D01*
X281279Y302857D01*
X280451Y304483D01*
X279886Y306220D01*
X279601Y308023D01*
X279601Y317995D01*
X291195Y317995D01*
X291195Y297337D01*
X290287Y297337D01*
G37*
%LPD*%
%LPC*%
G36*
X24765Y50205D02*
X24765Y50205D01*
X24765Y58704D01*
X25151Y59636D01*
X25864Y60349D01*
X26796Y60735D01*
X44795Y60735D01*
X44795Y50205D01*
X24765Y50205D01*
G37*
%LPD*%
%LPC*%
G36*
X225265Y317805D02*
X225265Y317805D01*
X225265Y326304D01*
X225651Y327236D01*
X226364Y327949D01*
X227296Y328335D01*
X245295Y328335D01*
X245295Y317805D01*
X225265Y317805D01*
G37*
%LPD*%
%LPC*%
G36*
X84965Y318005D02*
X84965Y318005D01*
X84965Y326504D01*
X85351Y327436D01*
X86064Y328149D01*
X86996Y328535D01*
X104995Y328535D01*
X104995Y318005D01*
X84965Y318005D01*
G37*
%LPD*%
%LPC*%
G36*
X140805Y50205D02*
X140805Y50205D01*
X140805Y60735D01*
X158804Y60735D01*
X159736Y60349D01*
X160449Y59636D01*
X160835Y58704D01*
X160835Y50205D01*
X140805Y50205D01*
G37*
%LPD*%
%LPC*%
G36*
X44805Y50205D02*
X44805Y50205D01*
X44805Y60735D01*
X62804Y60735D01*
X63736Y60349D01*
X64449Y59636D01*
X64835Y58704D01*
X64835Y50205D01*
X44805Y50205D01*
G37*
%LPD*%
%LPC*%
G36*
X105005Y318005D02*
X105005Y318005D01*
X105005Y328535D01*
X123004Y328535D01*
X123936Y328149D01*
X124649Y327436D01*
X125035Y326504D01*
X125035Y318005D01*
X105005Y318005D01*
G37*
%LPD*%
%LPC*%
G36*
X245305Y317805D02*
X245305Y317805D01*
X245305Y328335D01*
X263304Y328335D01*
X264236Y327949D01*
X264949Y327236D01*
X265335Y326304D01*
X265335Y317805D01*
X245305Y317805D01*
G37*
%LPD*%
%LPC*%
G36*
X44805Y39665D02*
X44805Y39665D01*
X44805Y50195D01*
X64835Y50195D01*
X64835Y41696D01*
X64449Y40764D01*
X63736Y40051D01*
X62804Y39665D01*
X44805Y39665D01*
G37*
%LPD*%
%LPC*%
G36*
X140805Y39665D02*
X140805Y39665D01*
X140805Y50195D01*
X160835Y50195D01*
X160835Y41696D01*
X160449Y40764D01*
X159736Y40051D01*
X158804Y39665D01*
X140805Y39665D01*
G37*
%LPD*%
%LPC*%
G36*
X105005Y307465D02*
X105005Y307465D01*
X105005Y317995D01*
X125035Y317995D01*
X125035Y309496D01*
X124649Y308564D01*
X123936Y307851D01*
X123004Y307465D01*
X105005Y307465D01*
G37*
%LPD*%
%LPC*%
G36*
X245305Y307265D02*
X245305Y307265D01*
X245305Y317795D01*
X265335Y317795D01*
X265335Y309296D01*
X264949Y308364D01*
X264236Y307651D01*
X263304Y307265D01*
X245305Y307265D01*
G37*
%LPD*%
%LPC*%
G36*
X86996Y307465D02*
X86996Y307465D01*
X86064Y307851D01*
X85351Y308564D01*
X84965Y309496D01*
X84965Y317995D01*
X104995Y317995D01*
X104995Y307465D01*
X86996Y307465D01*
G37*
%LPD*%
%LPC*%
G36*
X227296Y307265D02*
X227296Y307265D01*
X226364Y307651D01*
X225651Y308364D01*
X225265Y309296D01*
X225265Y317795D01*
X245295Y317795D01*
X245295Y307265D01*
X227296Y307265D01*
G37*
%LPD*%
%LPC*%
G36*
X318005Y396129D02*
X318005Y396129D01*
X318005Y407295D01*
X337807Y407295D01*
X337807Y406421D01*
X337532Y404684D01*
X336989Y403012D01*
X336191Y401445D01*
X335157Y400022D01*
X333914Y398779D01*
X332491Y397745D01*
X330924Y396947D01*
X329252Y396404D01*
X327515Y396129D01*
X318005Y396129D01*
G37*
%LPD*%
%LPC*%
G36*
X308485Y396129D02*
X308485Y396129D01*
X306748Y396404D01*
X305076Y396947D01*
X303509Y397745D01*
X302086Y398779D01*
X300843Y400022D01*
X299809Y401445D01*
X299011Y403012D01*
X298468Y404684D01*
X298193Y406421D01*
X298193Y407295D01*
X317995Y407295D01*
X317995Y396129D01*
X308485Y396129D01*
G37*
%LPD*%
%LPC*%
G36*
X408365Y250805D02*
X408365Y250805D01*
X408365Y257304D01*
X408751Y258236D01*
X409464Y258949D01*
X410396Y259335D01*
X425895Y259335D01*
X425895Y250805D01*
X408365Y250805D01*
G37*
%LPD*%
%LPC*%
G36*
X425905Y250805D02*
X425905Y250805D01*
X425905Y259335D01*
X441404Y259335D01*
X442336Y258949D01*
X443049Y258236D01*
X443435Y257304D01*
X443435Y250805D01*
X425905Y250805D01*
G37*
%LPD*%
%LPC*%
G36*
X276005Y392785D02*
X276005Y392785D01*
X276005Y403315D01*
X285519Y403315D01*
X286451Y402929D01*
X287164Y402216D01*
X287550Y401284D01*
X287550Y392785D01*
X276005Y392785D01*
G37*
%LPD*%
%LPC*%
G36*
X264450Y392785D02*
X264450Y392785D01*
X264450Y401284D01*
X264836Y402216D01*
X265549Y402929D01*
X266481Y403315D01*
X275995Y403315D01*
X275995Y392785D01*
X264450Y392785D01*
G37*
%LPD*%
%LPC*%
G36*
X444950Y261775D02*
X444950Y261775D01*
X444950Y270274D01*
X445336Y271206D01*
X446049Y271919D01*
X446981Y272305D01*
X456495Y272305D01*
X456495Y261775D01*
X444950Y261775D01*
G37*
%LPD*%
%LPC*%
G36*
X276005Y382245D02*
X276005Y382245D01*
X276005Y392775D01*
X287550Y392775D01*
X287550Y384276D01*
X287164Y383344D01*
X286451Y382631D01*
X285519Y382245D01*
X276005Y382245D01*
G37*
%LPD*%
%LPC*%
G36*
X446981Y251235D02*
X446981Y251235D01*
X446049Y251621D01*
X445336Y252334D01*
X444950Y253266D01*
X444950Y261765D01*
X456495Y261765D01*
X456495Y251235D01*
X446981Y251235D01*
G37*
%LPD*%
%LPC*%
G36*
X266481Y382245D02*
X266481Y382245D01*
X265549Y382631D01*
X264836Y383344D01*
X264450Y384276D01*
X264450Y392775D01*
X275995Y392775D01*
X275995Y382245D01*
X266481Y382245D01*
G37*
%LPD*%
%LPC*%
G36*
X42237Y100505D02*
X42237Y100505D01*
X42237Y104917D01*
X48483Y111163D01*
X52895Y111163D01*
X52895Y100505D01*
X42237Y100505D01*
G37*
%LPD*%
%LPC*%
G36*
X52905Y100495D02*
X52905Y100495D01*
X63563Y100495D01*
X63563Y96083D01*
X57317Y89837D01*
X52905Y89837D01*
X52905Y100495D01*
G37*
%LPD*%
%LPC*%
G36*
X451337Y33905D02*
X451337Y33905D01*
X451337Y38317D01*
X457583Y44563D01*
X461995Y44563D01*
X461995Y33905D01*
X451337Y33905D01*
G37*
%LPD*%
%LPC*%
G36*
X48483Y89837D02*
X48483Y89837D01*
X42237Y96083D01*
X42237Y100495D01*
X52895Y100495D01*
X52895Y89837D01*
X48483Y89837D01*
G37*
%LPD*%
%LPC*%
G36*
X457583Y23237D02*
X457583Y23237D01*
X451337Y29483D01*
X451337Y33895D01*
X461995Y33895D01*
X461995Y23237D01*
X457583Y23237D01*
G37*
%LPD*%
%LPC*%
G36*
X228105Y26665D02*
X228105Y26665D01*
X228105Y35695D01*
X238635Y35695D01*
X238635Y28696D01*
X238249Y27764D01*
X237536Y27051D01*
X236604Y26665D01*
X228105Y26665D01*
G37*
%LPD*%
%LPC*%
G36*
X219596Y26665D02*
X219596Y26665D01*
X218664Y27051D01*
X217951Y27764D01*
X217565Y28696D01*
X217565Y35695D01*
X228095Y35695D01*
X228095Y26665D01*
X219596Y26665D01*
G37*
%LPD*%
%LPC*%
G36*
X55505Y323605D02*
X55505Y323605D01*
X55505Y333399D01*
X56465Y333399D01*
X58358Y333023D01*
X60142Y332284D01*
X61747Y331211D01*
X63111Y329847D01*
X64184Y328242D01*
X64923Y326458D01*
X65299Y324565D01*
X65299Y323605D01*
X55505Y323605D01*
G37*
%LPD*%
%LPC*%
G36*
X45701Y323605D02*
X45701Y323605D01*
X45701Y324565D01*
X45702Y324573D01*
X45705Y324588D01*
X45707Y324598D01*
X45710Y324613D01*
X45713Y324628D01*
X45715Y324638D01*
X45718Y324653D01*
X45721Y324667D01*
X45723Y324677D01*
X45726Y324692D01*
X45729Y324707D01*
X45734Y324732D01*
X45737Y324747D01*
X45742Y324772D01*
X45745Y324787D01*
X45748Y324802D01*
X45750Y324812D01*
X45753Y324826D01*
X45756Y324841D01*
X45758Y324851D01*
X45761Y324866D01*
X45764Y324881D01*
X45766Y324891D01*
X45769Y324906D01*
X45772Y324921D01*
X45776Y324946D01*
X45777Y324946D01*
X45779Y324961D01*
X45784Y324985D01*
X45787Y325000D01*
X45790Y325015D01*
X45792Y325025D01*
X45795Y325040D01*
X45798Y325055D01*
X45800Y325065D01*
X45803Y325080D01*
X45806Y325095D01*
X45808Y325105D01*
X45811Y325120D01*
X45814Y325134D01*
X45814Y325135D01*
X45819Y325159D01*
X45822Y325174D01*
X45827Y325199D01*
X45830Y325214D01*
X45833Y325229D01*
X45835Y325239D01*
X45838Y325254D01*
X45841Y325269D01*
X45843Y325279D01*
X45846Y325293D01*
X45846Y325294D01*
X45849Y325308D01*
X45851Y325318D01*
X45854Y325333D01*
X45857Y325348D01*
X45861Y325373D01*
X45862Y325373D01*
X45864Y325388D01*
X45869Y325413D01*
X45872Y325428D01*
X45875Y325443D01*
X45877Y325452D01*
X45877Y325453D01*
X45880Y325467D01*
X45883Y325482D01*
X45885Y325492D01*
X45888Y325507D01*
X45891Y325522D01*
X45893Y325532D01*
X45896Y325547D01*
X45899Y325562D01*
X45904Y325587D01*
X45907Y325602D01*
X45912Y325626D01*
X45915Y325641D01*
X45918Y325656D01*
X45920Y325666D01*
X45923Y325681D01*
X45926Y325696D01*
X45928Y325706D01*
X45931Y325721D01*
X45934Y325736D01*
X45936Y325746D01*
X45939Y325761D01*
X45942Y325775D01*
X45942Y325776D01*
X45946Y325800D01*
X45947Y325800D01*
X45949Y325815D01*
X45954Y325840D01*
X45957Y325855D01*
X45960Y325870D01*
X45962Y325880D01*
X45965Y325895D01*
X45968Y325910D01*
X45970Y325920D01*
X45973Y325934D01*
X45973Y325935D01*
X45976Y325949D01*
X45978Y325959D01*
X45981Y325974D01*
X45984Y325989D01*
X45989Y326014D01*
X45992Y326029D01*
X45997Y326054D01*
X46000Y326069D01*
X46003Y326084D01*
X46005Y326093D01*
X46005Y326094D01*
X46008Y326108D01*
X46011Y326123D01*
X46013Y326133D01*
X46016Y326148D01*
X46019Y326163D01*
X46021Y326173D01*
X46024Y326188D01*
X46027Y326203D01*
X46031Y326228D01*
X46032Y326228D01*
X46034Y326243D01*
X46039Y326267D01*
X46042Y326282D01*
X46045Y326297D01*
X46047Y326307D01*
X46050Y326322D01*
X46053Y326337D01*
X46055Y326347D01*
X46058Y326362D01*
X46061Y326377D01*
X46066Y326402D01*
X46069Y326416D01*
X46074Y326441D01*
X46077Y326456D01*
X46077Y326458D01*
X46816Y328242D01*
X47889Y329847D01*
X49253Y331211D01*
X50858Y332284D01*
X52642Y333023D01*
X54535Y333399D01*
X55495Y333399D01*
X55495Y323605D01*
X45701Y323605D01*
G37*
%LPD*%
%LPC*%
G36*
X54535Y313801D02*
X54535Y313801D01*
X52642Y314177D01*
X50858Y314916D01*
X49253Y315989D01*
X47889Y317353D01*
X46816Y318958D01*
X46077Y320742D01*
X45701Y322635D01*
X45701Y323595D01*
X55495Y323595D01*
X55495Y313801D01*
X54535Y313801D01*
G37*
%LPD*%
%LPC*%
G36*
X55505Y313801D02*
X55505Y313801D01*
X55505Y323595D01*
X65299Y323595D01*
X65299Y322635D01*
X65299Y322632D01*
X65299Y322631D01*
X65294Y322607D01*
X65291Y322592D01*
X65286Y322567D01*
X65283Y322552D01*
X65280Y322537D01*
X65278Y322527D01*
X65275Y322512D01*
X65272Y322497D01*
X65270Y322487D01*
X65267Y322473D01*
X65267Y322472D01*
X65264Y322458D01*
X65259Y322433D01*
X65256Y322418D01*
X65251Y322393D01*
X65248Y322378D01*
X65243Y322353D01*
X65240Y322338D01*
X65237Y322323D01*
X65235Y322314D01*
X65235Y322313D01*
X65232Y322299D01*
X65229Y322284D01*
X65227Y322274D01*
X65224Y322259D01*
X65221Y322244D01*
X65217Y322219D01*
X65216Y322219D01*
X65217Y322219D01*
X65214Y322204D01*
X65209Y322179D01*
X65206Y322164D01*
X65201Y322140D01*
X65198Y322125D01*
X65195Y322110D01*
X65193Y322100D01*
X65190Y322085D01*
X65187Y322070D01*
X65185Y322060D01*
X65182Y322045D01*
X65179Y322030D01*
X65174Y322005D01*
X65171Y321991D01*
X65166Y321966D01*
X65163Y321951D01*
X65158Y321926D01*
X65155Y321911D01*
X65152Y321896D01*
X65150Y321886D01*
X65147Y321871D01*
X65144Y321856D01*
X65142Y321846D01*
X65139Y321832D01*
X65136Y321817D01*
X65132Y321792D01*
X65131Y321792D01*
X65132Y321792D01*
X65129Y321777D01*
X65124Y321752D01*
X65121Y321737D01*
X65116Y321712D01*
X65113Y321697D01*
X65110Y321683D01*
X65110Y321682D01*
X65108Y321673D01*
X65105Y321658D01*
X65102Y321643D01*
X65100Y321633D01*
X65097Y321618D01*
X65094Y321603D01*
X65089Y321578D01*
X65086Y321563D01*
X65081Y321538D01*
X65078Y321524D01*
X65078Y321523D01*
X65073Y321499D01*
X65070Y321484D01*
X65067Y321469D01*
X65065Y321459D01*
X65062Y321444D01*
X65059Y321429D01*
X65057Y321419D01*
X65054Y321404D01*
X65051Y321389D01*
X65047Y321365D01*
X65046Y321364D01*
X65047Y321364D01*
X65044Y321350D01*
X65039Y321325D01*
X65036Y321310D01*
X65031Y321285D01*
X65028Y321270D01*
X65025Y321255D01*
X65023Y321245D01*
X65020Y321230D01*
X65017Y321215D01*
X65015Y321206D01*
X65015Y321205D01*
X65012Y321191D01*
X65009Y321176D01*
X65004Y321151D01*
X65001Y321136D01*
X64996Y321111D01*
X64993Y321096D01*
X64988Y321071D01*
X64985Y321056D01*
X64982Y321042D01*
X64982Y321041D01*
X64980Y321032D01*
X64977Y321017D01*
X64974Y321002D01*
X64972Y320992D01*
X64969Y320977D01*
X64966Y320962D01*
X64962Y320937D01*
X64961Y320937D01*
X64959Y320922D01*
X64954Y320897D01*
X64951Y320883D01*
X64951Y320882D01*
X64946Y320858D01*
X64943Y320843D01*
X64940Y320828D01*
X64938Y320818D01*
X64935Y320803D01*
X64932Y320788D01*
X64930Y320778D01*
X64927Y320763D01*
X64924Y320748D01*
X64923Y320742D01*
X64184Y318958D01*
X63111Y317353D01*
X61747Y315989D01*
X60142Y314916D01*
X58358Y314177D01*
X56465Y313801D01*
X55505Y313801D01*
G37*
%LPD*%
%LPC*%
G36*
X153006Y377115D02*
X153006Y377115D01*
X151925Y377405D01*
X150956Y377964D01*
X150164Y378756D01*
X149605Y379725D01*
X149315Y380806D01*
X149315Y382945D01*
X162195Y382945D01*
X162195Y377115D01*
X153006Y377115D01*
G37*
%LPD*%
%LPC*%
G36*
X162205Y377115D02*
X162205Y377115D01*
X162205Y382945D01*
X175085Y382945D01*
X175085Y380806D01*
X174795Y379725D01*
X174236Y378756D01*
X173444Y377964D01*
X172475Y377405D01*
X171394Y377115D01*
X162205Y377115D01*
G37*
%LPD*%
D10*
X228100Y35700D03*
X228100Y55700D03*
D11*
X191300Y317800D03*
X245300Y317800D03*
X98800Y50200D03*
X44800Y50200D03*
X194800Y50200D03*
X140800Y50200D03*
D12*
X53400Y209700D03*
X53400Y253700D03*
D13*
X101200Y135300D03*
D14*
X174200Y158100D03*
X174200Y112500D03*
D15*
X55500Y323600D03*
X55500Y298600D03*
D16*
X52900Y125900D03*
X52900Y100500D03*
D17*
X226900Y181080D03*
X226900Y209520D03*
X53300Y151780D03*
X53300Y180220D03*
X456500Y233330D03*
X456500Y261770D03*
X227300Y78480D03*
X227300Y106920D03*
D18*
X261900Y110800D03*
X261900Y130800D03*
X261900Y150800D03*
X261900Y170800D03*
X261900Y190800D03*
X261900Y210800D03*
X261900Y230800D03*
X261900Y250800D03*
X425900Y110800D03*
X425900Y130800D03*
X425900Y150800D03*
X425900Y170800D03*
X425900Y190800D03*
X425900Y210800D03*
X425900Y230800D03*
X425900Y250800D03*
D19*
X459988Y169638D02*
X459988Y161862D01*
X457012Y161862D01*
X457012Y169638D01*
X459988Y169638D01*
X459988Y164925D02*
X457012Y164925D01*
X457012Y167988D02*
X459988Y167988D01*
X478988Y169638D02*
X478988Y161862D01*
X476012Y161862D01*
X476012Y169638D01*
X478988Y169638D01*
X478988Y164925D02*
X476012Y164925D01*
X476012Y167988D02*
X478988Y167988D01*
X466512Y150138D02*
X466512Y142362D01*
X466512Y150138D02*
X469488Y150138D01*
X469488Y142362D01*
X466512Y142362D01*
X466512Y145425D02*
X469488Y145425D01*
X469488Y148488D02*
X466512Y148488D01*
D17*
X512100Y141920D03*
X512100Y113480D03*
X511600Y233330D03*
X511600Y261770D03*
D20*
X486000Y33900D03*
X486000Y110100D03*
D16*
X462000Y110100D03*
X462000Y33900D03*
D21*
X170834Y419466D02*
X153566Y419466D01*
X153566Y422634D01*
X170834Y422634D01*
X170834Y419466D01*
X170834Y406766D02*
X153566Y406766D01*
X153566Y409934D01*
X170834Y409934D01*
X170834Y406766D01*
X170834Y394066D02*
X153566Y394066D01*
X153566Y397234D01*
X170834Y397234D01*
X170834Y394066D01*
X170834Y381366D02*
X153566Y381366D01*
X153566Y384534D01*
X170834Y384534D01*
X170834Y381366D01*
X122434Y384534D02*
X105166Y384534D01*
X122434Y384534D02*
X122434Y381366D01*
X105166Y381366D01*
X105166Y384534D01*
X105166Y397234D02*
X122434Y397234D01*
X122434Y394066D01*
X105166Y394066D01*
X105166Y397234D01*
X105166Y409934D02*
X122434Y409934D01*
X122434Y406766D01*
X105166Y406766D01*
X105166Y409934D01*
X105166Y422634D02*
X122434Y422634D01*
X122434Y419466D01*
X105166Y419466D01*
X105166Y422634D01*
D22*
X98220Y444000D03*
X69780Y444000D03*
D17*
X82300Y386780D03*
X82300Y415220D03*
X276000Y392780D03*
X276000Y421220D03*
D22*
X151720Y444200D03*
X123280Y444200D03*
D10*
X468000Y410500D03*
X468000Y429500D03*
D23*
X153597Y254853D02*
X153597Y246947D01*
X153597Y254853D02*
X165303Y254853D01*
X165303Y246947D01*
X153597Y246947D01*
X153597Y248272D02*
X165303Y248272D01*
X165303Y249597D02*
X153597Y249597D01*
X153597Y250922D02*
X165303Y250922D01*
X165303Y252247D02*
X153597Y252247D01*
X153597Y253572D02*
X165303Y253572D01*
X153597Y231953D02*
X153597Y224047D01*
X153597Y231953D02*
X165303Y231953D01*
X165303Y224047D01*
X153597Y224047D01*
X153597Y225372D02*
X165303Y225372D01*
X165303Y226697D02*
X153597Y226697D01*
X153597Y228022D02*
X165303Y228022D01*
X165303Y229347D02*
X153597Y229347D01*
X153597Y230672D02*
X165303Y230672D01*
X153597Y209053D02*
X153597Y201147D01*
X153597Y209053D02*
X165303Y209053D01*
X165303Y201147D01*
X153597Y201147D01*
X153597Y202472D02*
X165303Y202472D01*
X165303Y203797D02*
X153597Y203797D01*
X153597Y205122D02*
X165303Y205122D01*
X165303Y206447D02*
X153597Y206447D01*
X153597Y207772D02*
X165303Y207772D01*
D24*
X86982Y212782D02*
X86982Y243218D01*
X98118Y243218D01*
X98118Y212782D01*
X86982Y212782D01*
X86982Y214649D02*
X98118Y214649D01*
X98118Y216516D02*
X86982Y216516D01*
X86982Y218383D02*
X98118Y218383D01*
X98118Y220250D02*
X86982Y220250D01*
X86982Y222117D02*
X98118Y222117D01*
X98118Y223984D02*
X86982Y223984D01*
X86982Y225851D02*
X98118Y225851D01*
X98118Y227718D02*
X86982Y227718D01*
X86982Y229585D02*
X98118Y229585D01*
X98118Y231452D02*
X86982Y231452D01*
X86982Y233319D02*
X98118Y233319D01*
X98118Y235186D02*
X86982Y235186D01*
X86982Y237053D02*
X98118Y237053D01*
X98118Y238920D02*
X86982Y238920D01*
X86982Y240787D02*
X98118Y240787D01*
X98118Y242654D02*
X86982Y242654D01*
D11*
X159000Y318000D03*
X105000Y318000D03*
D25*
X225364Y432700D02*
X242636Y432700D01*
X242636Y407300D02*
X225364Y407300D01*
X309364Y407300D02*
X326636Y407300D01*
X326636Y432700D02*
X309364Y432700D01*
D26*
X392800Y327064D02*
X392800Y308936D01*
X367400Y308936D02*
X367400Y327064D01*
X342000Y327064D02*
X342000Y308936D01*
X316600Y308936D02*
X316600Y327064D01*
X291200Y327064D02*
X291200Y308936D01*
D17*
X477400Y233330D03*
X477400Y261770D03*
D27*
X226900Y181080D02*
X226900Y169100D01*
X245200Y150800D02*
X261900Y150800D01*
X245200Y150800D02*
X226900Y169100D01*
X44800Y92400D02*
X44800Y50200D01*
X44800Y92400D02*
X52900Y100500D01*
X24000Y71000D02*
X44800Y50200D01*
X53600Y323600D02*
X55500Y323600D01*
X24000Y294000D02*
X24000Y71000D01*
X24000Y294000D02*
X53600Y323600D01*
X52900Y100500D02*
X94500Y100500D01*
X101200Y107200D02*
X101200Y135300D01*
X101200Y107200D02*
X94500Y100500D01*
X44800Y50200D02*
X71000Y24000D01*
X77600Y323600D02*
X99400Y323600D01*
X105000Y318000D01*
X159450Y263550D01*
X159450Y250900D01*
X245300Y317800D02*
X245300Y336700D01*
X232500Y349500D01*
X103500Y349500D01*
X77600Y323600D02*
X55500Y323600D01*
X77600Y323600D02*
X103500Y349500D01*
X245100Y318000D02*
X291200Y318000D01*
X245300Y317800D02*
X245100Y318000D01*
X228100Y35700D02*
X216400Y24000D01*
X144000Y24000D01*
X71000Y24000D01*
X140800Y27200D02*
X144000Y24000D01*
X140800Y27200D02*
X140800Y50200D01*
X425900Y250800D02*
X436870Y261770D01*
X456500Y261770D01*
X425900Y250800D02*
X425900Y330100D01*
X291200Y339200D02*
X291200Y318000D01*
X417000Y339000D02*
X425900Y330100D01*
X417000Y339000D02*
X407200Y348800D01*
X300800Y348800D01*
X291200Y339200D01*
X462000Y54000D02*
X462000Y33900D01*
X354000Y72000D02*
X348000Y78000D01*
X282000Y78000D01*
X276000Y72000D01*
X263700Y35700D02*
X228100Y35700D01*
X444000Y72000D02*
X462000Y54000D01*
X444000Y72000D02*
X354000Y72000D01*
X276000Y72000D02*
X276000Y48000D01*
X263700Y35700D01*
X414750Y382950D02*
X417100Y385300D01*
X414750Y382950D02*
X318000Y382950D01*
D28*
X417100Y385300D03*
D27*
X318000Y382950D02*
X276000Y382950D01*
X162200Y382950D01*
D28*
X417000Y339000D03*
D27*
X318000Y382950D02*
X318000Y407300D01*
X276000Y392780D02*
X276000Y382950D01*
X168000Y318000D02*
X159000Y318000D01*
X186000Y234000D02*
X180000Y228000D01*
X159450Y228000D01*
X186000Y300000D02*
X168000Y318000D01*
X186000Y300000D02*
X186000Y270000D01*
X186000Y234000D01*
X226900Y232900D02*
X226900Y209520D01*
X226900Y232900D02*
X231000Y237000D01*
X246000Y252000D02*
X260700Y252000D01*
X261900Y250800D01*
D28*
X231000Y237000D03*
D27*
X246000Y252000D01*
D28*
X198000Y270000D03*
D27*
X186000Y270000D01*
X180000Y228000D02*
X193700Y214300D01*
X227300Y78480D02*
X228100Y77680D01*
X228100Y55700D01*
X228100Y77680D02*
X216320Y77680D01*
X193700Y100300D02*
X193700Y214300D01*
X193700Y100300D02*
X216320Y77680D01*
X477400Y261770D02*
X477400Y350600D01*
X464400Y363600D01*
X173800Y363600D01*
X173500Y363300D01*
D28*
X173500Y363300D03*
X174000Y336000D03*
D27*
X174000Y318000D01*
X477400Y261770D02*
X479630Y264000D01*
X509370Y264000D02*
X511600Y261770D01*
X498000Y264000D02*
X479630Y264000D01*
X498000Y264000D02*
X509370Y264000D01*
D29*
X458500Y170500D02*
X458500Y165750D01*
X495200Y261200D02*
X498000Y264000D01*
X495200Y207200D02*
X458500Y170500D01*
X495200Y207200D02*
X495200Y261200D01*
D27*
X53400Y209700D02*
X53400Y180320D01*
X53300Y180220D01*
X101000Y48000D02*
X114000Y48000D01*
X101000Y48000D02*
X98800Y50200D01*
X53400Y180320D02*
X173880Y180320D01*
X102000Y78000D02*
X102000Y53400D01*
X98800Y50200D01*
X102000Y78000D02*
X108000Y84000D01*
X138000Y84000D01*
X150000Y96000D01*
X164100Y158100D02*
X174200Y158100D01*
X150000Y144000D02*
X150000Y96000D01*
X150000Y144000D02*
X164100Y158100D01*
X174200Y190350D02*
X159450Y205100D01*
X174200Y190350D02*
X174200Y180000D01*
X174200Y158100D01*
X174200Y180000D02*
X173880Y180320D01*
X53300Y151780D02*
X53300Y126300D01*
X52900Y125900D01*
X261900Y130800D02*
X263100Y132000D01*
X330000Y132000D01*
X366000Y96000D01*
X462000Y110100D02*
X486000Y110100D01*
X462000Y110100D02*
X447900Y96000D01*
X366000Y96000D01*
X261900Y110800D02*
X258000Y110800D01*
X249200Y110800D01*
X312000Y276000D02*
X317700Y281700D01*
X317700Y316900D01*
X316600Y318000D01*
X207200Y152800D02*
X249200Y110800D01*
X207200Y152800D02*
X207200Y249200D01*
X234000Y276000D01*
X312000Y276000D01*
X254120Y106920D02*
X227300Y106920D01*
X254120Y106920D02*
X258000Y110800D01*
X425900Y230800D02*
X453970Y230800D01*
X456500Y233330D01*
X425900Y110800D02*
X375200Y110800D01*
X342000Y144000D02*
X342000Y318000D01*
X342000Y144000D02*
X375200Y110800D01*
X367400Y148600D02*
X367400Y318000D01*
X385200Y130800D02*
X425900Y130800D01*
X385200Y130800D02*
X367400Y148600D01*
X194800Y73900D02*
X194800Y50200D01*
X194800Y73900D02*
X174200Y94500D01*
X174200Y112500D01*
X174200Y131800D01*
X174000Y132000D01*
D28*
X174000Y132000D03*
X252000Y54000D03*
D27*
X252000Y84000D01*
X258000Y90000D01*
X356444Y90000D01*
X362744Y83700D01*
X512100Y92100D02*
X512100Y113480D01*
X512100Y92100D02*
X503700Y83700D01*
X362744Y83700D01*
X252000Y18000D02*
X246000Y12000D01*
D28*
X252000Y18000D03*
D27*
X42000Y12000D02*
X12000Y42000D01*
X42000Y12000D02*
X246000Y12000D01*
X82300Y415220D02*
X78000Y415220D01*
X12000Y402000D02*
X12000Y42000D01*
X12000Y402000D02*
X31220Y421220D01*
X69780Y423440D02*
X78000Y415220D01*
X69780Y423440D02*
X69780Y444000D01*
X84000Y421220D02*
X108000Y421220D01*
X84000Y421220D02*
X31220Y421220D01*
D29*
X108170Y421050D02*
X113800Y421050D01*
X108170Y421050D02*
X108000Y421220D01*
X82300Y419520D02*
X82300Y415220D01*
X82300Y419520D02*
X84000Y421220D01*
D27*
X55500Y298600D02*
X55500Y247500D01*
X54000Y246000D01*
X53400Y246600D01*
X53400Y253700D01*
X468000Y146250D02*
X507770Y146250D01*
X512100Y141920D01*
X162200Y421050D02*
X148950Y421050D01*
X162200Y433720D02*
X151720Y444200D01*
X162200Y433720D02*
X162200Y421050D01*
X512100Y141920D02*
X534000Y163820D01*
X534000Y456000D02*
X528000Y462000D01*
X534000Y456000D02*
X534000Y163820D01*
X420000Y462000D02*
X414000Y468000D01*
X210000Y468000D01*
D28*
X210000Y468000D03*
X177000Y436400D03*
D27*
X174320Y433720D01*
X162200Y433720D01*
X420000Y462000D02*
X528000Y462000D01*
X488875Y177125D02*
X477500Y165750D01*
X488875Y177125D02*
X511600Y199850D01*
X511600Y233330D01*
X507900Y33900D02*
X486000Y33900D01*
X540000Y66000D02*
X540000Y132000D01*
D28*
X540000Y132000D03*
X504000Y168000D03*
D27*
X494875Y177125D01*
X488875Y177125D01*
X540000Y66000D02*
X507900Y33900D01*
X180350Y408350D02*
X162200Y408350D01*
X180350Y408350D02*
X192000Y420000D01*
X123280Y444200D02*
X123280Y453280D01*
X138000Y468000D02*
X180000Y468000D01*
X192000Y456000D02*
X192000Y420000D01*
X138000Y468000D02*
X123280Y453280D01*
X180000Y468000D02*
X192000Y456000D01*
X98420Y444200D02*
X98220Y444000D01*
X98420Y444200D02*
X123280Y444200D01*
X275700Y440600D02*
X276000Y440300D01*
D28*
X275700Y440600D03*
X275500Y483000D03*
D27*
X195000Y483000D01*
X180000Y468000D01*
X276000Y440300D02*
X276000Y421220D01*
X82300Y386780D02*
X76500Y384900D01*
D29*
X143650Y395650D02*
X162200Y395650D01*
X143650Y395650D02*
X138000Y390000D01*
X138000Y372000D01*
X134100Y368100D01*
X82300Y379700D02*
X82300Y386780D01*
X93900Y368100D02*
X134100Y368100D01*
X93900Y368100D02*
X82300Y379700D01*
D27*
X162200Y395650D02*
X221650Y395650D01*
X233300Y407300D02*
X234000Y407300D01*
X233300Y407300D02*
X221650Y395650D01*
X409200Y190800D02*
X425900Y190800D01*
X392800Y207200D02*
X392800Y318000D01*
X392800Y207200D02*
X409200Y190800D01*
X477400Y213400D02*
X477400Y233330D01*
X454800Y190800D02*
X425900Y190800D01*
X454800Y190800D02*
X477400Y213400D01*
X371300Y432700D02*
X318000Y432700D01*
X393500Y410500D02*
X468000Y410500D01*
X393500Y410500D02*
X371300Y432700D01*
X234000Y432700D02*
X234000Y450000D01*
X237900Y453900D01*
X422500Y429500D02*
X468000Y429500D01*
X422500Y429500D02*
X398100Y453900D01*
X237900Y453900D01*
M02*
