G04 EAGLE Gerber RS-274X export*
G75*
%MOMM*%
%FSLAX34Y34*%
%LPD*%
%INSilkscreen Top*%
%IPPOS*%
%AMOC8*
5,1,8,0,0,1.08239X$1,22.5*%
G01*
%ADD10C,0.152400*%
%ADD11C,0.076200*%
%ADD12R,0.508000X0.381000*%
%ADD13C,0.101600*%
%ADD14C,0.127000*%
%ADD15C,0.254000*%


D10*
X79000Y348100D02*
X79000Y274100D01*
X79000Y348100D02*
X21500Y348100D01*
X21500Y274100D02*
X79000Y274100D01*
X21500Y274100D02*
X21500Y348100D01*
D11*
X88981Y307808D02*
X96166Y307808D01*
X96256Y307806D01*
X96345Y307800D01*
X96434Y307790D01*
X96522Y307777D01*
X96610Y307759D01*
X96697Y307738D01*
X96783Y307713D01*
X96868Y307684D01*
X96952Y307652D01*
X97034Y307616D01*
X97114Y307576D01*
X97193Y307533D01*
X97269Y307486D01*
X97344Y307437D01*
X97416Y307384D01*
X97486Y307328D01*
X97553Y307269D01*
X97618Y307207D01*
X97680Y307142D01*
X97739Y307075D01*
X97795Y307005D01*
X97848Y306933D01*
X97897Y306858D01*
X97944Y306782D01*
X97987Y306703D01*
X98027Y306623D01*
X98063Y306541D01*
X98095Y306457D01*
X98124Y306372D01*
X98149Y306286D01*
X98170Y306199D01*
X98188Y306111D01*
X98201Y306023D01*
X98211Y305934D01*
X98217Y305845D01*
X98219Y305755D01*
X98219Y304728D01*
X91034Y311940D02*
X88981Y314506D01*
X98219Y314506D01*
X98219Y311940D02*
X98219Y317072D01*
D10*
X475840Y49140D02*
X475842Y49040D01*
X475848Y48941D01*
X475858Y48841D01*
X475871Y48743D01*
X475889Y48644D01*
X475910Y48547D01*
X475935Y48451D01*
X475964Y48355D01*
X475997Y48261D01*
X476033Y48168D01*
X476073Y48077D01*
X476117Y47987D01*
X476164Y47899D01*
X476214Y47813D01*
X476268Y47729D01*
X476325Y47647D01*
X476385Y47568D01*
X476449Y47490D01*
X476515Y47416D01*
X476584Y47344D01*
X476656Y47275D01*
X476730Y47209D01*
X476808Y47145D01*
X476887Y47085D01*
X476969Y47028D01*
X477053Y46974D01*
X477139Y46924D01*
X477227Y46877D01*
X477317Y46833D01*
X477408Y46793D01*
X477501Y46757D01*
X477595Y46724D01*
X477691Y46695D01*
X477787Y46670D01*
X477884Y46649D01*
X477983Y46631D01*
X478081Y46618D01*
X478181Y46608D01*
X478280Y46602D01*
X478380Y46600D01*
X493620Y46600D02*
X493720Y46602D01*
X493819Y46608D01*
X493919Y46618D01*
X494017Y46631D01*
X494116Y46649D01*
X494213Y46670D01*
X494309Y46695D01*
X494405Y46724D01*
X494499Y46757D01*
X494592Y46793D01*
X494683Y46833D01*
X494773Y46877D01*
X494861Y46924D01*
X494947Y46974D01*
X495031Y47028D01*
X495113Y47085D01*
X495192Y47145D01*
X495270Y47209D01*
X495344Y47275D01*
X495416Y47344D01*
X495485Y47416D01*
X495551Y47490D01*
X495615Y47568D01*
X495675Y47647D01*
X495732Y47729D01*
X495786Y47813D01*
X495836Y47899D01*
X495883Y47987D01*
X495927Y48077D01*
X495967Y48168D01*
X496003Y48261D01*
X496036Y48355D01*
X496065Y48451D01*
X496090Y48547D01*
X496111Y48644D01*
X496129Y48743D01*
X496142Y48841D01*
X496152Y48941D01*
X496158Y49040D01*
X496160Y49140D01*
X496160Y94860D02*
X496158Y94960D01*
X496152Y95059D01*
X496142Y95159D01*
X496129Y95257D01*
X496111Y95356D01*
X496090Y95453D01*
X496065Y95549D01*
X496036Y95645D01*
X496003Y95739D01*
X495967Y95832D01*
X495927Y95923D01*
X495883Y96013D01*
X495836Y96101D01*
X495786Y96187D01*
X495732Y96271D01*
X495675Y96353D01*
X495615Y96432D01*
X495551Y96510D01*
X495485Y96584D01*
X495416Y96656D01*
X495344Y96725D01*
X495270Y96791D01*
X495192Y96855D01*
X495113Y96915D01*
X495031Y96972D01*
X494947Y97026D01*
X494861Y97076D01*
X494773Y97123D01*
X494683Y97167D01*
X494592Y97207D01*
X494499Y97243D01*
X494405Y97276D01*
X494309Y97305D01*
X494213Y97330D01*
X494116Y97351D01*
X494017Y97369D01*
X493919Y97382D01*
X493819Y97392D01*
X493720Y97398D01*
X493620Y97400D01*
X478380Y97400D02*
X478280Y97398D01*
X478181Y97392D01*
X478081Y97382D01*
X477983Y97369D01*
X477884Y97351D01*
X477787Y97330D01*
X477691Y97305D01*
X477595Y97276D01*
X477501Y97243D01*
X477408Y97207D01*
X477317Y97167D01*
X477227Y97123D01*
X477139Y97076D01*
X477053Y97026D01*
X476969Y96972D01*
X476887Y96915D01*
X476808Y96855D01*
X476730Y96791D01*
X476656Y96725D01*
X476584Y96656D01*
X476515Y96584D01*
X476449Y96510D01*
X476385Y96432D01*
X476325Y96353D01*
X476268Y96271D01*
X476214Y96187D01*
X476164Y96101D01*
X476117Y96013D01*
X476073Y95923D01*
X476033Y95832D01*
X475997Y95739D01*
X475964Y95645D01*
X475935Y95549D01*
X475910Y95453D01*
X475889Y95356D01*
X475871Y95257D01*
X475858Y95159D01*
X475848Y95059D01*
X475842Y94960D01*
X475840Y94860D01*
X478380Y46600D02*
X493620Y46600D01*
X475840Y49140D02*
X475840Y52950D01*
X477110Y54220D01*
X496160Y52950D02*
X496160Y49140D01*
X496160Y52950D02*
X494890Y54220D01*
X477110Y89780D02*
X475840Y91050D01*
X477110Y89780D02*
X477110Y54220D01*
X494890Y89780D02*
X496160Y91050D01*
X494890Y89780D02*
X494890Y54220D01*
X475840Y91050D02*
X475840Y94860D01*
X496160Y94860D02*
X496160Y91050D01*
X493620Y97400D02*
X478380Y97400D01*
D12*
X486000Y99305D03*
X486000Y44695D03*
D13*
X472538Y47108D02*
X463648Y47108D01*
X463648Y49577D01*
X463650Y49675D01*
X463656Y49773D01*
X463666Y49871D01*
X463679Y49968D01*
X463697Y50065D01*
X463718Y50161D01*
X463743Y50255D01*
X463772Y50349D01*
X463804Y50442D01*
X463841Y50533D01*
X463880Y50623D01*
X463924Y50711D01*
X463971Y50797D01*
X464021Y50882D01*
X464074Y50964D01*
X464131Y51044D01*
X464191Y51122D01*
X464254Y51197D01*
X464320Y51270D01*
X464389Y51340D01*
X464460Y51407D01*
X464534Y51472D01*
X464611Y51533D01*
X464690Y51592D01*
X464771Y51647D01*
X464854Y51699D01*
X464940Y51747D01*
X465027Y51792D01*
X465116Y51834D01*
X465206Y51872D01*
X465298Y51906D01*
X465391Y51937D01*
X465486Y51964D01*
X465581Y51987D01*
X465678Y52007D01*
X465774Y52022D01*
X465872Y52034D01*
X465970Y52042D01*
X466068Y52046D01*
X466166Y52046D01*
X466264Y52042D01*
X466362Y52034D01*
X466460Y52022D01*
X466556Y52007D01*
X466653Y51987D01*
X466748Y51964D01*
X466843Y51937D01*
X466936Y51906D01*
X467028Y51872D01*
X467118Y51834D01*
X467207Y51792D01*
X467294Y51747D01*
X467380Y51699D01*
X467463Y51647D01*
X467544Y51592D01*
X467623Y51533D01*
X467700Y51472D01*
X467774Y51407D01*
X467845Y51340D01*
X467914Y51270D01*
X467980Y51197D01*
X468043Y51122D01*
X468103Y51044D01*
X468160Y50964D01*
X468213Y50882D01*
X468263Y50797D01*
X468310Y50711D01*
X468354Y50623D01*
X468393Y50533D01*
X468430Y50442D01*
X468462Y50349D01*
X468491Y50255D01*
X468516Y50161D01*
X468537Y50065D01*
X468555Y49968D01*
X468568Y49871D01*
X468578Y49773D01*
X468584Y49675D01*
X468586Y49577D01*
X468587Y49577D02*
X468587Y47108D01*
X468587Y50071D02*
X472538Y52047D01*
X465624Y55958D02*
X463648Y58427D01*
X472538Y58427D01*
X472538Y55958D02*
X472538Y60897D01*
X468093Y64873D02*
X467918Y64875D01*
X467743Y64881D01*
X467569Y64892D01*
X467394Y64906D01*
X467221Y64925D01*
X467047Y64948D01*
X466874Y64975D01*
X466702Y65006D01*
X466531Y65041D01*
X466361Y65081D01*
X466191Y65124D01*
X466023Y65172D01*
X465856Y65223D01*
X465690Y65278D01*
X465525Y65338D01*
X465362Y65401D01*
X465201Y65468D01*
X465041Y65539D01*
X464883Y65614D01*
X464882Y65615D02*
X464804Y65644D01*
X464726Y65676D01*
X464651Y65713D01*
X464577Y65752D01*
X464505Y65795D01*
X464434Y65841D01*
X464367Y65891D01*
X464301Y65943D01*
X464238Y65998D01*
X464178Y66057D01*
X464120Y66118D01*
X464065Y66181D01*
X464013Y66247D01*
X463964Y66316D01*
X463919Y66386D01*
X463876Y66458D01*
X463837Y66533D01*
X463802Y66609D01*
X463770Y66686D01*
X463742Y66765D01*
X463717Y66846D01*
X463696Y66927D01*
X463679Y67009D01*
X463665Y67092D01*
X463656Y67175D01*
X463650Y67259D01*
X463648Y67343D01*
X463650Y67427D01*
X463656Y67511D01*
X463665Y67594D01*
X463679Y67677D01*
X463696Y67759D01*
X463717Y67840D01*
X463742Y67921D01*
X463770Y68000D01*
X463802Y68077D01*
X463837Y68153D01*
X463876Y68228D01*
X463919Y68300D01*
X463964Y68371D01*
X464013Y68439D01*
X464065Y68505D01*
X464120Y68568D01*
X464178Y68629D01*
X464238Y68688D01*
X464301Y68743D01*
X464367Y68795D01*
X464434Y68845D01*
X464505Y68891D01*
X464577Y68934D01*
X464651Y68973D01*
X464726Y69010D01*
X464804Y69042D01*
X464883Y69071D01*
X465041Y69146D01*
X465201Y69217D01*
X465362Y69284D01*
X465525Y69347D01*
X465690Y69407D01*
X465856Y69462D01*
X466023Y69513D01*
X466191Y69561D01*
X466361Y69604D01*
X466531Y69644D01*
X466702Y69679D01*
X466874Y69710D01*
X467047Y69737D01*
X467221Y69760D01*
X467394Y69779D01*
X467569Y69793D01*
X467743Y69804D01*
X467918Y69810D01*
X468093Y69812D01*
X468093Y64873D02*
X468268Y64875D01*
X468443Y64881D01*
X468617Y64892D01*
X468792Y64906D01*
X468965Y64925D01*
X469139Y64948D01*
X469312Y64975D01*
X469484Y65006D01*
X469655Y65041D01*
X469825Y65081D01*
X469995Y65124D01*
X470163Y65172D01*
X470330Y65223D01*
X470496Y65278D01*
X470661Y65338D01*
X470824Y65401D01*
X470985Y65468D01*
X471145Y65539D01*
X471303Y65614D01*
X471304Y65615D02*
X471382Y65644D01*
X471460Y65676D01*
X471535Y65713D01*
X471609Y65752D01*
X471682Y65795D01*
X471752Y65841D01*
X471819Y65891D01*
X471885Y65943D01*
X471948Y65999D01*
X472009Y66057D01*
X472066Y66118D01*
X472121Y66181D01*
X472173Y66247D01*
X472222Y66316D01*
X472267Y66386D01*
X472310Y66458D01*
X472349Y66533D01*
X472384Y66609D01*
X472416Y66687D01*
X472444Y66766D01*
X472469Y66846D01*
X472490Y66927D01*
X472507Y67009D01*
X472521Y67092D01*
X472530Y67175D01*
X472536Y67259D01*
X472538Y67343D01*
X471303Y69071D02*
X471145Y69146D01*
X470985Y69217D01*
X470824Y69284D01*
X470661Y69347D01*
X470496Y69407D01*
X470330Y69462D01*
X470163Y69513D01*
X469995Y69561D01*
X469825Y69604D01*
X469655Y69644D01*
X469484Y69679D01*
X469312Y69710D01*
X469139Y69737D01*
X468965Y69760D01*
X468792Y69779D01*
X468617Y69793D01*
X468443Y69804D01*
X468268Y69810D01*
X468093Y69812D01*
X471304Y69071D02*
X471382Y69042D01*
X471460Y69010D01*
X471535Y68973D01*
X471609Y68934D01*
X471682Y68891D01*
X471752Y68845D01*
X471819Y68795D01*
X471885Y68743D01*
X471948Y68687D01*
X472008Y68629D01*
X472066Y68568D01*
X472121Y68505D01*
X472173Y68439D01*
X472222Y68370D01*
X472267Y68300D01*
X472310Y68228D01*
X472349Y68153D01*
X472384Y68077D01*
X472416Y68000D01*
X472444Y67921D01*
X472469Y67840D01*
X472490Y67759D01*
X472507Y67677D01*
X472521Y67594D01*
X472530Y67511D01*
X472536Y67427D01*
X472538Y67343D01*
X470562Y65367D02*
X465624Y69318D01*
D10*
X472160Y94860D02*
X472158Y94960D01*
X472152Y95059D01*
X472142Y95159D01*
X472129Y95257D01*
X472111Y95356D01*
X472090Y95453D01*
X472065Y95549D01*
X472036Y95645D01*
X472003Y95739D01*
X471967Y95832D01*
X471927Y95923D01*
X471883Y96013D01*
X471836Y96101D01*
X471786Y96187D01*
X471732Y96271D01*
X471675Y96353D01*
X471615Y96432D01*
X471551Y96510D01*
X471485Y96584D01*
X471416Y96656D01*
X471344Y96725D01*
X471270Y96791D01*
X471192Y96855D01*
X471113Y96915D01*
X471031Y96972D01*
X470947Y97026D01*
X470861Y97076D01*
X470773Y97123D01*
X470683Y97167D01*
X470592Y97207D01*
X470499Y97243D01*
X470405Y97276D01*
X470309Y97305D01*
X470213Y97330D01*
X470116Y97351D01*
X470017Y97369D01*
X469919Y97382D01*
X469819Y97392D01*
X469720Y97398D01*
X469620Y97400D01*
X454380Y97400D02*
X454280Y97398D01*
X454181Y97392D01*
X454081Y97382D01*
X453983Y97369D01*
X453884Y97351D01*
X453787Y97330D01*
X453691Y97305D01*
X453595Y97276D01*
X453501Y97243D01*
X453408Y97207D01*
X453317Y97167D01*
X453227Y97123D01*
X453139Y97076D01*
X453053Y97026D01*
X452969Y96972D01*
X452887Y96915D01*
X452808Y96855D01*
X452730Y96791D01*
X452656Y96725D01*
X452584Y96656D01*
X452515Y96584D01*
X452449Y96510D01*
X452385Y96432D01*
X452325Y96353D01*
X452268Y96271D01*
X452214Y96187D01*
X452164Y96101D01*
X452117Y96013D01*
X452073Y95923D01*
X452033Y95832D01*
X451997Y95739D01*
X451964Y95645D01*
X451935Y95549D01*
X451910Y95453D01*
X451889Y95356D01*
X451871Y95257D01*
X451858Y95159D01*
X451848Y95059D01*
X451842Y94960D01*
X451840Y94860D01*
X451840Y49140D02*
X451842Y49040D01*
X451848Y48941D01*
X451858Y48841D01*
X451871Y48743D01*
X451889Y48644D01*
X451910Y48547D01*
X451935Y48451D01*
X451964Y48355D01*
X451997Y48261D01*
X452033Y48168D01*
X452073Y48077D01*
X452117Y47987D01*
X452164Y47899D01*
X452214Y47813D01*
X452268Y47729D01*
X452325Y47647D01*
X452385Y47568D01*
X452449Y47490D01*
X452515Y47416D01*
X452584Y47344D01*
X452656Y47275D01*
X452730Y47209D01*
X452808Y47145D01*
X452887Y47085D01*
X452969Y47028D01*
X453053Y46974D01*
X453139Y46924D01*
X453227Y46877D01*
X453317Y46833D01*
X453408Y46793D01*
X453501Y46757D01*
X453595Y46724D01*
X453691Y46695D01*
X453787Y46670D01*
X453884Y46649D01*
X453983Y46631D01*
X454081Y46618D01*
X454181Y46608D01*
X454280Y46602D01*
X454380Y46600D01*
X469620Y46600D02*
X469720Y46602D01*
X469819Y46608D01*
X469919Y46618D01*
X470017Y46631D01*
X470116Y46649D01*
X470213Y46670D01*
X470309Y46695D01*
X470405Y46724D01*
X470499Y46757D01*
X470592Y46793D01*
X470683Y46833D01*
X470773Y46877D01*
X470861Y46924D01*
X470947Y46974D01*
X471031Y47028D01*
X471113Y47085D01*
X471192Y47145D01*
X471270Y47209D01*
X471344Y47275D01*
X471416Y47344D01*
X471485Y47416D01*
X471551Y47490D01*
X471615Y47568D01*
X471675Y47647D01*
X471732Y47729D01*
X471786Y47813D01*
X471836Y47899D01*
X471883Y47987D01*
X471927Y48077D01*
X471967Y48168D01*
X472003Y48261D01*
X472036Y48355D01*
X472065Y48451D01*
X472090Y48547D01*
X472111Y48644D01*
X472129Y48743D01*
X472142Y48841D01*
X472152Y48941D01*
X472158Y49040D01*
X472160Y49140D01*
X469620Y97400D02*
X454380Y97400D01*
X472160Y94860D02*
X472160Y91050D01*
X470890Y89780D01*
X451840Y91050D02*
X451840Y94860D01*
X451840Y91050D02*
X453110Y89780D01*
X470890Y54220D02*
X472160Y52950D01*
X470890Y54220D02*
X470890Y89780D01*
X453110Y54220D02*
X451840Y52950D01*
X453110Y54220D02*
X453110Y89780D01*
X472160Y52950D02*
X472160Y49140D01*
X451840Y49140D02*
X451840Y52950D01*
X454380Y46600D02*
X469620Y46600D01*
D12*
X462000Y44695D03*
X462000Y99305D03*
D13*
X475462Y74188D02*
X484352Y74188D01*
X475462Y74188D02*
X475462Y76657D01*
X475464Y76755D01*
X475470Y76853D01*
X475480Y76951D01*
X475493Y77048D01*
X475511Y77145D01*
X475532Y77241D01*
X475557Y77335D01*
X475586Y77429D01*
X475618Y77522D01*
X475655Y77613D01*
X475694Y77703D01*
X475738Y77791D01*
X475785Y77877D01*
X475835Y77962D01*
X475888Y78044D01*
X475945Y78124D01*
X476005Y78202D01*
X476068Y78277D01*
X476134Y78350D01*
X476203Y78420D01*
X476274Y78487D01*
X476348Y78552D01*
X476425Y78613D01*
X476504Y78672D01*
X476585Y78727D01*
X476668Y78779D01*
X476754Y78827D01*
X476841Y78872D01*
X476930Y78914D01*
X477020Y78952D01*
X477112Y78986D01*
X477205Y79017D01*
X477300Y79044D01*
X477395Y79067D01*
X477492Y79087D01*
X477588Y79102D01*
X477686Y79114D01*
X477784Y79122D01*
X477882Y79126D01*
X477980Y79126D01*
X478078Y79122D01*
X478176Y79114D01*
X478274Y79102D01*
X478370Y79087D01*
X478467Y79067D01*
X478562Y79044D01*
X478657Y79017D01*
X478750Y78986D01*
X478842Y78952D01*
X478932Y78914D01*
X479021Y78872D01*
X479108Y78827D01*
X479194Y78779D01*
X479277Y78727D01*
X479358Y78672D01*
X479437Y78613D01*
X479514Y78552D01*
X479588Y78487D01*
X479659Y78420D01*
X479728Y78350D01*
X479794Y78277D01*
X479857Y78202D01*
X479917Y78124D01*
X479974Y78044D01*
X480027Y77962D01*
X480077Y77877D01*
X480124Y77791D01*
X480168Y77703D01*
X480207Y77613D01*
X480244Y77522D01*
X480276Y77429D01*
X480305Y77335D01*
X480330Y77241D01*
X480351Y77145D01*
X480369Y77048D01*
X480382Y76951D01*
X480392Y76853D01*
X480398Y76755D01*
X480400Y76657D01*
X480401Y76657D02*
X480401Y74188D01*
X480401Y77151D02*
X484352Y79127D01*
X477438Y83038D02*
X475462Y85507D01*
X484352Y85507D01*
X484352Y83038D02*
X484352Y87977D01*
X477438Y91953D02*
X475462Y94423D01*
X484352Y94423D01*
X484352Y96892D02*
X484352Y91953D01*
D10*
X246700Y417460D02*
X244160Y420000D01*
X246700Y422540D01*
X223840Y420000D02*
X221300Y417460D01*
X223840Y420000D02*
X221300Y422540D01*
X221300Y442860D01*
X223840Y445400D01*
X221300Y397140D02*
X223840Y394600D01*
X221300Y397140D02*
X221300Y417460D01*
X223840Y394600D02*
X244160Y394600D01*
X246700Y397140D01*
X246700Y417460D01*
X246700Y422540D02*
X246700Y442860D01*
X244160Y445400D01*
X223840Y445400D01*
D14*
X251145Y421576D02*
X260035Y421576D01*
X260135Y421574D01*
X260234Y421568D01*
X260334Y421558D01*
X260432Y421545D01*
X260531Y421527D01*
X260628Y421506D01*
X260724Y421481D01*
X260820Y421452D01*
X260914Y421419D01*
X261007Y421383D01*
X261098Y421343D01*
X261188Y421299D01*
X261276Y421252D01*
X261362Y421202D01*
X261446Y421148D01*
X261528Y421091D01*
X261607Y421031D01*
X261685Y420967D01*
X261759Y420901D01*
X261831Y420832D01*
X261900Y420760D01*
X261966Y420686D01*
X262030Y420608D01*
X262090Y420529D01*
X262147Y420447D01*
X262201Y420363D01*
X262251Y420277D01*
X262298Y420189D01*
X262342Y420099D01*
X262382Y420008D01*
X262418Y419915D01*
X262451Y419821D01*
X262480Y419725D01*
X262505Y419629D01*
X262526Y419532D01*
X262544Y419433D01*
X262557Y419335D01*
X262567Y419235D01*
X262573Y419136D01*
X262575Y419036D01*
X262575Y417766D01*
X262575Y427557D02*
X251145Y427557D01*
X251145Y430732D01*
X251147Y430843D01*
X251153Y430953D01*
X251162Y431064D01*
X251176Y431174D01*
X251193Y431283D01*
X251214Y431392D01*
X251239Y431500D01*
X251268Y431607D01*
X251300Y431713D01*
X251336Y431818D01*
X251376Y431921D01*
X251419Y432023D01*
X251466Y432124D01*
X251517Y432223D01*
X251570Y432320D01*
X251627Y432414D01*
X251688Y432507D01*
X251751Y432598D01*
X251818Y432687D01*
X251888Y432773D01*
X251961Y432856D01*
X252036Y432938D01*
X252114Y433016D01*
X252196Y433091D01*
X252279Y433164D01*
X252365Y433234D01*
X252454Y433301D01*
X252545Y433364D01*
X252638Y433425D01*
X252733Y433482D01*
X252829Y433535D01*
X252928Y433586D01*
X253029Y433633D01*
X253131Y433676D01*
X253234Y433716D01*
X253339Y433752D01*
X253445Y433784D01*
X253552Y433813D01*
X253660Y433838D01*
X253769Y433859D01*
X253878Y433876D01*
X253988Y433890D01*
X254099Y433899D01*
X254209Y433905D01*
X254320Y433907D01*
X254431Y433905D01*
X254541Y433899D01*
X254652Y433890D01*
X254762Y433876D01*
X254871Y433859D01*
X254980Y433838D01*
X255088Y433813D01*
X255195Y433784D01*
X255301Y433752D01*
X255406Y433716D01*
X255509Y433676D01*
X255611Y433633D01*
X255712Y433586D01*
X255811Y433535D01*
X255908Y433482D01*
X256002Y433425D01*
X256095Y433364D01*
X256186Y433301D01*
X256275Y433234D01*
X256361Y433164D01*
X256444Y433091D01*
X256526Y433016D01*
X256604Y432938D01*
X256679Y432856D01*
X256752Y432773D01*
X256822Y432687D01*
X256889Y432598D01*
X256952Y432507D01*
X257013Y432414D01*
X257070Y432320D01*
X257123Y432223D01*
X257174Y432124D01*
X257221Y432023D01*
X257264Y431921D01*
X257304Y431818D01*
X257340Y431713D01*
X257372Y431607D01*
X257401Y431500D01*
X257426Y431392D01*
X257447Y431283D01*
X257464Y431174D01*
X257478Y431064D01*
X257487Y430953D01*
X257493Y430843D01*
X257495Y430732D01*
X257495Y427557D01*
X253685Y438415D02*
X251145Y441590D01*
X262575Y441590D01*
X262575Y438415D02*
X262575Y444765D01*
D10*
X305300Y422540D02*
X307840Y420000D01*
X305300Y417460D01*
X328160Y420000D02*
X330700Y422540D01*
X328160Y420000D02*
X330700Y417460D01*
X330700Y397140D01*
X328160Y394600D01*
X330700Y442860D02*
X328160Y445400D01*
X330700Y442860D02*
X330700Y422540D01*
X328160Y445400D02*
X307840Y445400D01*
X305300Y442860D01*
X305300Y422540D01*
X305300Y417460D02*
X305300Y397140D01*
X307840Y394600D01*
X328160Y394600D01*
D14*
X298315Y399045D02*
X289425Y399045D01*
X298315Y399045D02*
X298415Y399043D01*
X298514Y399037D01*
X298614Y399027D01*
X298712Y399014D01*
X298811Y398996D01*
X298908Y398975D01*
X299004Y398950D01*
X299100Y398921D01*
X299194Y398888D01*
X299287Y398852D01*
X299378Y398812D01*
X299468Y398768D01*
X299556Y398721D01*
X299642Y398671D01*
X299726Y398617D01*
X299808Y398560D01*
X299887Y398500D01*
X299965Y398436D01*
X300039Y398370D01*
X300111Y398301D01*
X300180Y398229D01*
X300246Y398155D01*
X300310Y398077D01*
X300370Y397998D01*
X300427Y397916D01*
X300481Y397832D01*
X300531Y397746D01*
X300578Y397658D01*
X300622Y397568D01*
X300662Y397477D01*
X300698Y397384D01*
X300731Y397290D01*
X300760Y397194D01*
X300785Y397098D01*
X300806Y397001D01*
X300824Y396902D01*
X300837Y396804D01*
X300847Y396704D01*
X300853Y396605D01*
X300855Y396505D01*
X300855Y395235D01*
X300855Y405025D02*
X289425Y405025D01*
X289425Y408200D01*
X289427Y408311D01*
X289433Y408421D01*
X289442Y408532D01*
X289456Y408642D01*
X289473Y408751D01*
X289494Y408860D01*
X289519Y408968D01*
X289548Y409075D01*
X289580Y409181D01*
X289616Y409286D01*
X289656Y409389D01*
X289699Y409491D01*
X289746Y409592D01*
X289797Y409691D01*
X289850Y409788D01*
X289907Y409882D01*
X289968Y409975D01*
X290031Y410066D01*
X290098Y410155D01*
X290168Y410241D01*
X290241Y410324D01*
X290316Y410406D01*
X290394Y410484D01*
X290476Y410559D01*
X290559Y410632D01*
X290645Y410702D01*
X290734Y410769D01*
X290825Y410832D01*
X290918Y410893D01*
X291013Y410950D01*
X291109Y411003D01*
X291208Y411054D01*
X291309Y411101D01*
X291411Y411144D01*
X291514Y411184D01*
X291619Y411220D01*
X291725Y411252D01*
X291832Y411281D01*
X291940Y411306D01*
X292049Y411327D01*
X292158Y411344D01*
X292268Y411358D01*
X292379Y411367D01*
X292489Y411373D01*
X292600Y411375D01*
X292711Y411373D01*
X292821Y411367D01*
X292932Y411358D01*
X293042Y411344D01*
X293151Y411327D01*
X293260Y411306D01*
X293368Y411281D01*
X293475Y411252D01*
X293581Y411220D01*
X293686Y411184D01*
X293789Y411144D01*
X293891Y411101D01*
X293992Y411054D01*
X294091Y411003D01*
X294188Y410950D01*
X294282Y410893D01*
X294375Y410832D01*
X294466Y410769D01*
X294555Y410702D01*
X294641Y410632D01*
X294724Y410559D01*
X294806Y410484D01*
X294884Y410406D01*
X294959Y410324D01*
X295032Y410241D01*
X295102Y410155D01*
X295169Y410066D01*
X295232Y409975D01*
X295293Y409882D01*
X295350Y409788D01*
X295403Y409691D01*
X295454Y409592D01*
X295501Y409491D01*
X295544Y409389D01*
X295584Y409286D01*
X295620Y409181D01*
X295652Y409075D01*
X295681Y408968D01*
X295706Y408860D01*
X295727Y408751D01*
X295744Y408642D01*
X295758Y408532D01*
X295767Y408421D01*
X295773Y408311D01*
X295775Y408200D01*
X295775Y405025D01*
X289425Y419376D02*
X289427Y419480D01*
X289433Y419585D01*
X289442Y419689D01*
X289455Y419792D01*
X289473Y419895D01*
X289493Y419997D01*
X289518Y420099D01*
X289546Y420199D01*
X289578Y420299D01*
X289614Y420397D01*
X289653Y420494D01*
X289695Y420589D01*
X289741Y420683D01*
X289791Y420775D01*
X289843Y420865D01*
X289899Y420953D01*
X289959Y421039D01*
X290021Y421123D01*
X290086Y421204D01*
X290154Y421283D01*
X290226Y421360D01*
X290299Y421433D01*
X290376Y421505D01*
X290455Y421573D01*
X290536Y421638D01*
X290620Y421700D01*
X290706Y421760D01*
X290794Y421816D01*
X290884Y421868D01*
X290976Y421918D01*
X291070Y421964D01*
X291165Y422006D01*
X291262Y422045D01*
X291360Y422081D01*
X291460Y422113D01*
X291560Y422141D01*
X291662Y422166D01*
X291764Y422186D01*
X291867Y422204D01*
X291970Y422217D01*
X292074Y422226D01*
X292179Y422232D01*
X292283Y422234D01*
X289425Y419376D02*
X289427Y419258D01*
X289433Y419139D01*
X289442Y419021D01*
X289455Y418904D01*
X289473Y418787D01*
X289493Y418670D01*
X289518Y418554D01*
X289546Y418439D01*
X289579Y418326D01*
X289614Y418213D01*
X289654Y418101D01*
X289696Y417991D01*
X289743Y417882D01*
X289793Y417774D01*
X289846Y417669D01*
X289903Y417565D01*
X289963Y417463D01*
X290026Y417363D01*
X290093Y417265D01*
X290162Y417169D01*
X290235Y417076D01*
X290311Y416985D01*
X290389Y416896D01*
X290471Y416810D01*
X290555Y416727D01*
X290641Y416646D01*
X290731Y416569D01*
X290822Y416494D01*
X290916Y416422D01*
X291013Y416353D01*
X291111Y416288D01*
X291212Y416225D01*
X291315Y416166D01*
X291419Y416110D01*
X291525Y416058D01*
X291633Y416009D01*
X291742Y415964D01*
X291853Y415922D01*
X291965Y415884D01*
X294505Y421282D02*
X294430Y421358D01*
X294351Y421433D01*
X294270Y421504D01*
X294186Y421573D01*
X294100Y421638D01*
X294012Y421700D01*
X293922Y421760D01*
X293830Y421816D01*
X293735Y421869D01*
X293639Y421918D01*
X293541Y421964D01*
X293442Y422007D01*
X293341Y422046D01*
X293239Y422081D01*
X293136Y422113D01*
X293032Y422141D01*
X292927Y422166D01*
X292820Y422187D01*
X292714Y422204D01*
X292607Y422217D01*
X292499Y422226D01*
X292391Y422232D01*
X292283Y422234D01*
X294505Y421281D02*
X300855Y415884D01*
X300855Y422234D01*
D15*
X278500Y286250D02*
X405500Y286250D01*
X278500Y286250D02*
X278500Y305300D01*
X278500Y349750D01*
X405500Y349750D01*
X405500Y305300D01*
X405500Y286250D01*
X405500Y305300D02*
X278500Y305300D01*
D13*
X390260Y270248D02*
X396356Y279392D01*
X390260Y279392D02*
X396356Y270248D01*
X399912Y277360D02*
X402452Y279392D01*
X402452Y270248D01*
X399912Y270248D02*
X404992Y270248D01*
M02*
