G04 EAGLE Gerber RS-274X export*
G75*
%MOMM*%
%FSLAX34Y34*%
%LPD*%
%INSoldermask Top*%
%IPPOS*%
%AMOC8*
5,1,8,0,0,1.08239X$1,22.5*%
G01*
%ADD10C,1.656000*%
%ADD11P,1.979475X8X292.500000*%
%ADD12P,1.979475X8X112.500000*%
%ADD13C,1.930400*%
%ADD14C,2.016000*%
%ADD15C,1.209600*%


D10*
X55500Y323600D03*
X55500Y298600D03*
D11*
X52900Y125900D03*
X52900Y100500D03*
D12*
X486000Y33900D03*
X486000Y110100D03*
D11*
X462000Y110100D03*
X462000Y33900D03*
D13*
X242636Y432700D02*
X225364Y432700D01*
X225364Y407300D02*
X242636Y407300D01*
X309364Y407300D02*
X326636Y407300D01*
X326636Y432700D02*
X309364Y432700D01*
D14*
X392800Y327064D02*
X392800Y308936D01*
X367400Y308936D02*
X367400Y327064D01*
X342000Y327064D02*
X342000Y308936D01*
X316600Y308936D02*
X316600Y327064D01*
X291200Y327064D02*
X291200Y308936D01*
D15*
X417100Y385300D03*
X417000Y339000D03*
X231000Y237000D03*
X198000Y270000D03*
X173500Y363300D03*
X174000Y336000D03*
X174000Y132000D03*
X252000Y54000D03*
X252000Y18000D03*
X210000Y468000D03*
X177000Y436400D03*
X540000Y132000D03*
X504000Y168000D03*
X275700Y440600D03*
X275500Y483000D03*
M02*
