G04 EAGLE Gerber RS-274X export*
G75*
%MOMM*%
%FSLAX34Y34*%
%LPD*%
%INSoldermask Bottom*%
%IPPOS*%
%AMOC8*
5,1,8,0,0,1.08239X$1,22.5*%
G01*
%ADD10R,1.803200X1.503200*%
%ADD11R,3.703200X1.803200*%
%ADD12R,2.603200X2.603200*%
%ADD13R,6.403200X5.603200*%
%ADD14R,1.803200X1.203200*%
%ADD15C,1.656000*%
%ADD16P,1.979475X8X292.500000*%
%ADD17R,2.006200X1.803200*%
%ADD18R,3.203200X1.403200*%
%ADD19P,1.979475X8X112.500000*%
%ADD20C,0.543816*%
%ADD21R,1.803200X2.006200*%
%ADD22C,0.339959*%
%ADD23C,0.393431*%
%ADD24C,1.930400*%
%ADD25C,2.016000*%
%ADD26C,1.209600*%


D10*
X228100Y35700D03*
X228100Y55700D03*
D11*
X191300Y317800D03*
X245300Y317800D03*
X98800Y50200D03*
X44800Y50200D03*
X194800Y50200D03*
X140800Y50200D03*
D12*
X53400Y209700D03*
X53400Y253700D03*
D13*
X101200Y135300D03*
D14*
X174200Y158100D03*
X174200Y112500D03*
D15*
X55500Y323600D03*
X55500Y298600D03*
D16*
X52900Y125900D03*
X52900Y100500D03*
D17*
X226900Y181080D03*
X226900Y209520D03*
X53300Y151780D03*
X53300Y180220D03*
X456500Y233330D03*
X456500Y261770D03*
X227300Y78480D03*
X227300Y106920D03*
D18*
X261900Y110800D03*
X261900Y130800D03*
X261900Y150800D03*
X261900Y170800D03*
X261900Y190800D03*
X261900Y210800D03*
X261900Y230800D03*
X261900Y250800D03*
X425900Y110800D03*
X425900Y130800D03*
X425900Y150800D03*
X425900Y170800D03*
X425900Y190800D03*
X425900Y210800D03*
X425900Y230800D03*
X425900Y250800D03*
D17*
X512100Y141920D03*
X512100Y113480D03*
X511600Y233330D03*
X511600Y261770D03*
D19*
X486000Y33900D03*
X486000Y110100D03*
D16*
X462000Y110100D03*
X462000Y33900D03*
D20*
X170847Y419453D02*
X153553Y419453D01*
X153553Y422647D01*
X170847Y422647D01*
X170847Y419453D01*
X170847Y406753D02*
X153553Y406753D01*
X153553Y409947D01*
X170847Y409947D01*
X170847Y406753D01*
X170847Y394053D02*
X153553Y394053D01*
X153553Y397247D01*
X170847Y397247D01*
X170847Y394053D01*
X170847Y381353D02*
X153553Y381353D01*
X153553Y384547D01*
X170847Y384547D01*
X170847Y381353D01*
X122447Y384547D02*
X105153Y384547D01*
X122447Y384547D02*
X122447Y381353D01*
X105153Y381353D01*
X105153Y384547D01*
X105153Y397247D02*
X122447Y397247D01*
X122447Y394053D01*
X105153Y394053D01*
X105153Y397247D01*
X105153Y409947D02*
X122447Y409947D01*
X122447Y406753D01*
X105153Y406753D01*
X105153Y409947D01*
X105153Y422647D02*
X122447Y422647D01*
X122447Y419453D01*
X105153Y419453D01*
X105153Y422647D01*
D21*
X98220Y444000D03*
X69780Y444000D03*
D17*
X82300Y386780D03*
X82300Y415220D03*
X276000Y392780D03*
X276000Y421220D03*
D21*
X151720Y444200D03*
X123280Y444200D03*
D10*
X468000Y410500D03*
X468000Y429500D03*
D22*
X153584Y254866D02*
X153584Y246934D01*
X153584Y254866D02*
X165316Y254866D01*
X165316Y246934D01*
X153584Y246934D01*
X153584Y250164D02*
X165316Y250164D01*
X165316Y253394D02*
X153584Y253394D01*
X153584Y231966D02*
X153584Y224034D01*
X153584Y231966D02*
X165316Y231966D01*
X165316Y224034D01*
X153584Y224034D01*
X153584Y227264D02*
X165316Y227264D01*
X165316Y230494D02*
X153584Y230494D01*
X153584Y209066D02*
X153584Y201134D01*
X153584Y209066D02*
X165316Y209066D01*
X165316Y201134D01*
X153584Y201134D01*
X153584Y204364D02*
X165316Y204364D01*
X165316Y207594D02*
X153584Y207594D01*
D23*
X86951Y212751D02*
X86951Y243249D01*
X98149Y243249D01*
X98149Y212751D01*
X86951Y212751D01*
X86951Y216488D02*
X98149Y216488D01*
X98149Y220225D02*
X86951Y220225D01*
X86951Y223962D02*
X98149Y223962D01*
X98149Y227699D02*
X86951Y227699D01*
X86951Y231436D02*
X98149Y231436D01*
X98149Y235173D02*
X86951Y235173D01*
X86951Y238910D02*
X98149Y238910D01*
X98149Y242647D02*
X86951Y242647D01*
D11*
X159000Y318000D03*
X105000Y318000D03*
D24*
X225364Y432700D02*
X242636Y432700D01*
X242636Y407300D02*
X225364Y407300D01*
X309364Y407300D02*
X326636Y407300D01*
X326636Y432700D02*
X309364Y432700D01*
D25*
X392800Y327064D02*
X392800Y308936D01*
X367400Y308936D02*
X367400Y327064D01*
X342000Y327064D02*
X342000Y308936D01*
X316600Y308936D02*
X316600Y327064D01*
X291200Y327064D02*
X291200Y308936D01*
D17*
X477400Y233330D03*
X477400Y261770D03*
D26*
X417100Y385300D03*
X417000Y339000D03*
X231000Y237000D03*
X198000Y270000D03*
X173500Y363300D03*
X174000Y336000D03*
X174000Y132000D03*
X252000Y54000D03*
X252000Y18000D03*
X210000Y468000D03*
X177000Y436400D03*
X540000Y132000D03*
X504000Y168000D03*
X275700Y440600D03*
X275500Y483000D03*
M02*
